<svg width="690" height="697" viewBox="0 0 690 697" fill="none" xmlns="http://www.w3.org/2000/svg">
<g clip-path="url(#clip0_353_4080)">
<path d="M688.61 154.403L397.67 692.486C395.848 695.859 391.735 697.273 388.212 695.732L37.0792 541.455L35.3843 540.713L34.7177 539.319L26.535 535.235C24.8845 534.411 23.0055 534.145 21.1899 534.481L15.7115 532.072C15.0132 531.748 14.4419 531.216 14.1181 530.518L2.81851 506.273C2.28527 505.113 1.52984 503.325 0.977558 501.455H0.958513C0.86964 501.15 0.799811 500.846 0.710938 500.542C0.729982 500.504 0.749026 500.472 0.761722 500.434L30.3819 448.463L298.595 30.3506L662.964 137.608L684.217 143.853C688.705 145.172 690.851 150.295 688.616 154.403H688.61Z" fill="url(#paint0_linear_353_4080)"/>
<path d="M689.156 154.695L449.521 597.94L419.565 653.348L404.59 681.048L400.844 687.971L398.972 691.433C398.368 692.536 397.746 693.887 396.642 694.838C394.56 696.81 391.386 697.507 388.662 696.594C386.117 695.561 383.812 694.489 381.375 693.437L265.954 642.734L35.124 541.328H35.1113L34.8828 541.221L34.7749 540.999L34.1083 539.604L34.413 539.915L28.2808 536.852C27.2587 536.37 26.224 535.762 25.2654 535.426C24.2688 535.083 23.2023 534.944 22.1549 535.026C21.8946 535.045 21.6343 535.077 21.374 535.121H21.3233L21.3106 535.134C21.3931 535.147 20.5615 535.045 20.9043 535.083L20.8789 535.071L20.7837 535.026L20.5869 534.937L20.1933 534.766L18.6253 534.075L15.483 532.693C14.8736 532.427 14.3023 531.989 13.8896 531.431C13.458 530.816 13.3056 530.303 13.0453 529.796L11.598 526.695L5.81486 514.281L2.92012 508.074C1.94252 506.032 0.990303 503.87 0.336449 501.639L0.977607 502.12H0.457063L0.323753 501.639L0.0761772 500.726L0 500.447L0.120614 500.237L17.362 469.976L25.9828 454.854C27.4365 452.343 28.814 449.788 30.3312 447.322L35.0288 439.999L72.5968 381.428L147.739 264.286L298.018 30.0083L298.03 29.9892L298.303 29.5645L298.786 29.7039L398.381 58.85L497.913 88.2052L597.445 117.56L647.208 132.238L672.092 139.574L678.313 141.406C678.827 141.577 679.373 141.634 679.811 142.065C680.243 142.503 680.694 142.89 681.233 142.972L684.344 143.891C686.407 144.538 688.197 146.028 689.213 148.038C690.235 150.029 690.324 152.628 689.162 154.695H689.156ZM688.064 154.105C688.991 152.375 689.334 150.251 688.699 148.241C688.115 146.231 686.426 144.494 684.338 143.891L681.227 142.972C680.726 142.75 680.141 142.833 679.538 142.966C678.935 143.093 678.447 142.845 677.926 142.712L671.705 140.886L646.814 133.576L597.032 118.949L497.469 89.7015L397.905 60.454L298.405 30.991L299.16 30.712L299.148 30.7311L148.876 264.996L73.7395 382.132L36.1715 440.696L31.4739 448.019C29.9567 450.486 28.5791 453.041 27.1254 455.545L18.5174 470.648L1.31406 500.84L1.35849 500.352L1.60607 501.265L0.964911 500.783H1.48545L1.62511 501.265C2.25992 503.414 3.14866 505.449 4.14531 507.516L7.04004 513.723L12.8232 526.137L14.2705 529.238C14.5244 529.745 14.7403 530.328 14.9815 530.645C15.2481 531.007 15.6163 531.292 16.048 531.482L19.1839 532.858L20.7519 533.549L21.1455 533.72L21.3423 533.809L21.4375 533.853L21.4629 533.866C21.8184 533.91 20.9932 533.815 21.082 533.822H21.0947L21.1519 533.809C21.4566 533.758 21.7613 533.714 22.066 533.695C23.2975 533.606 24.5417 533.765 25.7098 534.164C26.9096 534.595 27.8491 535.172 28.8902 535.66L35.0225 538.723L35.2256 538.824L35.3272 539.033L35.9937 540.428L35.6573 540.105H35.67L266.493 641.542L381.908 692.257C384.295 693.291 386.764 694.426 389.075 695.371C391.354 696.138 394.02 695.554 395.766 693.9C396.68 693.113 397.181 692.01 397.835 690.831L399.708 687.369L403.453 680.446L418.435 652.745L448.398 597.344L688.07 154.112L688.064 154.105Z" fill="url(#paint1_linear_353_4080)"/>
<path d="M73.0207 427.28L46.4793 473.837C46.4793 473.837 17.9255 488.628 9.69206 503.617C7.32422 507.928 17.424 526.029 17.0749 526.822C17.1257 526.873 383.912 683.888 383.912 683.888C386.122 684.789 388.534 684.529 390.464 683.368L352.883 591.093L73.0207 427.28Z" fill="url(#paint2_linear_353_4080)"/>
<path d="M669.252 119.786L302.167 25.3672L73.0195 427.28L352.875 591.086L390.456 683.362C391.542 682.715 392.475 681.79 393.129 680.61L679.047 162.969L684.894 153.078C687.179 148.957 673.791 121.086 669.252 119.786V119.786Z" fill="url(#paint3_linear_353_4080)"/>
<path d="M672.385 120.572L380.62 648.104C378.818 651.369 374.85 652.783 371.397 651.369L31.1514 513.698L28.8978 514.573L19.4011 510.73L16.5571 507.795L1.18837 501.575C1.11854 501.537 1.04236 501.505 0.991579 501.448H0.972534C0.705914 501.233 0.597997 500.859 0.724958 500.535C0.744003 500.497 0.763047 500.466 0.775743 500.428L286.085 0L298.762 3.65197L302.666 6.56213L313.331 9.11724L316.422 8.73683L667.986 109.952C672.525 111.258 674.671 116.451 672.385 120.572Z" fill="url(#paint4_linear_353_4080)"/>
<path d="M671.497 112.184C673.408 113.959 674.144 116.983 673.236 119.545C672.773 120.851 672.049 121.89 671.452 123.038L669.586 126.417L662.108 139.947L647.152 167.008L617.246 221.121L557.428 329.349L437.798 545.811L407.892 599.924L392.936 626.985L385.458 640.515L381.719 647.28C381.401 647.844 381.116 648.396 380.729 648.998C380.329 649.562 379.878 650.095 379.351 650.545C378.304 651.452 377.015 652.079 375.65 652.333C374.292 652.593 372.851 652.498 371.549 652.022C370.292 651.547 369.143 651.058 367.931 650.577L360.757 647.679L346.417 641.884L317.736 630.288L260.369 607.095L30.904 514.319H31.3991L29.1456 515.194L28.898 515.289L28.6504 515.187L19.1537 511.345L19.0203 511.294L18.9188 511.193L16.0812 508.264H16.0748L16.3034 508.41C13.5229 507.421 10.8059 506.292 8.08258 505.17L4.03249 503.401L2.00745 502.513C1.3536 502.171 0.572779 502.127 0.210938 501.087C1.20759 500.618 1.79161 501.125 2.49625 501.34L4.55938 502.126L8.68565 503.712C11.4153 504.821 14.1387 505.931 16.8112 507.173L16.9699 507.243L17.0397 507.325L19.8773 510.261L19.6488 510.109L29.1456 513.951H28.6504L30.904 513.076L31.1516 512.981L31.3991 513.082L260.813 605.992L318.168 629.216L346.842 640.832L361.183 646.639L368.35 649.543L371.917 650.97C373.035 651.382 374.266 651.458 375.434 651.236C376.609 651.014 377.713 650.475 378.615 649.702C379.548 648.922 380.119 647.914 380.735 646.741L384.48 639.976L391.965 626.452L406.934 599.405L436.871 545.31L556.634 328.924L616.516 220.728L646.454 166.633L661.422 139.586L668.907 126.062C670.107 123.818 671.503 121.535 672.544 119.316C673.395 117.002 672.982 114.301 671.478 112.19L671.497 112.184Z" fill="url(#paint5_linear_353_4080)"/>
<path d="M517.591 412.501C499.708 445.724 481.324 478.668 463.067 511.681C444.676 544.619 426.413 577.632 408.289 610.722C426.076 577.448 444.422 544.479 462.68 511.466C481.07 478.528 499.378 445.54 517.591 412.501V412.501Z" fill="url(#paint6_linear_353_4080)"/>
<path d="M674.626 127.647L619.271 230.194L591.695 281.518L584.82 294.364C582.541 298.65 580.04 302.822 577.672 307.057L563.351 332.424L449.402 535.736L563.084 332.272L577.374 306.886C579.735 302.644 582.23 298.478 584.496 294.186L591.333 281.328C600.443 264.178 609.73 247.116 618.985 230.042L674.626 127.647V127.647Z" fill="url(#paint7_linear_353_4080)"/>
<g opacity="0.46">
<path d="M494.658 460.883C486.278 477.679 477.353 494.195 468.25 510.603C459.153 527.018 449.758 543.268 440.496 559.582C431.107 575.825 421.833 592.132 412.679 608.503L405.848 620.803L399.132 633.16L392.479 645.561L385.953 658.026L392.06 645.346L398.357 632.754L404.858 620.264L411.479 607.837C420.392 591.314 429.679 575.007 438.953 558.688L467.063 509.925C476.414 493.662 485.631 477.323 494.664 460.877L494.658 460.883Z" fill="url(#paint8_linear_353_4080)"/>
</g>
<g opacity="0.46">
<path d="M676.796 131.261L657.669 166.475L638.384 201.6C625.541 225.027 612.35 248.251 599.914 271.881C587.269 295.403 574.915 319.097 561.749 342.359C555.217 354.019 548.285 365.456 541.404 376.894C534.497 388.319 527.787 399.878 522.055 411.943C527.52 399.751 533.989 388.028 540.648 376.45C547.384 364.905 554.17 353.416 560.55 341.687C573.455 318.311 585.809 294.636 598.34 271.038C610.915 247.459 624.094 224.209 637.19 200.928L656.914 166.044L676.796 131.255V131.261Z" fill="url(#paint9_linear_353_4080)"/>
</g>
<path d="M464.282 525.408C456.017 540.618 447.371 555.613 438.922 570.715C430.333 585.742 421.928 600.87 413.656 616.073C421.591 600.692 430.085 585.602 438.534 570.5L464.282 525.408V525.408Z" fill="url(#paint10_linear_353_4080)"/>
<path d="M522.066 419.47C512.283 435.885 502.787 452.464 493.747 469.298C484.568 486.055 475.845 503.053 467.098 520.038C475.503 502.875 484.307 485.915 493.353 469.082C502.533 452.325 511.953 435.688 522.066 419.47Z" fill="url(#paint11_linear_353_4080)"/>
<path d="M580.116 312.249C571.717 329.977 561.992 347.032 552.381 364.113C542.624 381.123 532.962 398.185 524.145 415.697C532.619 398.007 542.383 380.971 551.994 363.891C561.751 346.886 571.374 329.799 580.116 312.243V312.249Z" fill="url(#paint12_linear_353_4080)"/>
<path d="M522.652 421.244C518.215 429.626 513.74 437.982 509.213 446.313L495.565 471.269L481.739 496.122C477.105 504.396 472.426 512.638 467.703 520.862C472.14 512.48 476.616 504.124 481.142 495.792L494.79 470.837L508.617 445.984C513.251 437.71 517.929 429.467 522.652 421.244Z" fill="url(#paint13_linear_353_4080)"/>
<g opacity="0.46">
<path d="M527.132 428.929L520.365 442.84L513.414 456.661C508.678 465.829 503.854 474.947 498.966 484.032C489.171 502.19 479.026 520.159 468.863 538.108L438.024 591.759L422.63 618.597C417.494 627.543 412.422 636.521 407.395 645.53C412.225 636.419 417.107 627.334 422.052 618.28L437.123 591.252L467.695 537.448C477.954 519.556 488.079 501.588 498.058 483.538C503.054 474.515 507.974 465.455 512.83 456.357L520.067 442.687L527.126 428.923L527.132 428.929Z" fill="url(#paint14_linear_353_4080)"/>
</g>
<g opacity="0.46">
<path d="M627.846 245.823L610.63 277.873L593.23 309.815L558.423 373.699L523.223 437.368L505.619 469.202L487.832 500.935L505.042 468.885L522.442 436.943L557.255 373.053L592.455 309.384L610.058 277.55L627.846 245.823Z" fill="url(#paint15_linear_353_4080)"/>
</g>
<g opacity="0.46">
<path d="M682.986 146.377L675.857 159.837L668.608 173.228L653.918 199.907L638.956 226.435L631.376 239.648L623.676 252.785L630.805 239.325L638.054 225.934L652.744 199.261L667.712 172.733L675.286 159.527L682.986 146.377Z" fill="url(#paint16_linear_353_4080)"/>
</g>
<path d="M247.424 266.523C248.346 266.812 249.418 266.333 249.817 265.452C250.216 264.572 249.792 263.625 248.87 263.336C247.948 263.048 246.876 263.527 246.477 264.407C246.077 265.287 246.501 266.235 247.424 266.523Z" fill="#0F0F0F"/>
<path fill-rule="evenodd" clip-rule="evenodd" d="M261.508 269.111C258.313 276.152 249.741 279.988 242.362 277.679C234.983 275.37 231.591 267.79 234.786 260.749C237.98 253.708 246.552 249.872 253.931 252.181C261.311 254.49 264.703 262.069 261.508 269.111ZM256.05 260.123L246.253 260.697L239.297 267.62L240.244 269.737L250.041 269.162L256.997 262.239L256.05 260.123Z" fill="#0F0F0F"/>
<path d="M269.14 280.459L273.355 281.778L274.307 282.101C274.994 282.316 275.594 282.204 275.855 281.687C276.024 281.315 275.936 280.988 275.384 280.591C274.434 279.919 274.406 279.461 274.836 278.572L279.318 268.694C279.546 268.191 279.828 268.03 280.286 268.173C280.928 268.374 281.557 269.12 282.174 270.411C282.483 271.057 282.738 271.935 283.265 272.1C283.586 272.201 284.006 272.082 284.273 271.492C284.581 270.815 284.963 269.512 285.101 268.631C285.279 267.489 285.031 267.287 284.069 266.986L273.578 263.703C272.868 263.481 272.287 263.723 271.744 264.402C271.188 265.052 270.459 266.196 270.142 266.896C269.894 267.442 269.866 267.907 270.347 268.058C270.805 268.201 271.373 267.93 272.443 267.416C273.851 266.734 274.95 266.503 275.682 266.733C276.186 266.89 276.248 267.159 276.019 267.662L271.537 277.54C271.154 278.444 270.792 278.78 269.554 278.742C268.823 278.738 268.498 278.935 268.339 279.285C268.101 279.81 268.453 280.244 269.14 280.459Z" fill="#0F0F0F"/>
<path d="M280.049 283.873L284.286 285.198C284.905 285.392 285.469 285.244 285.697 284.741C285.846 284.414 285.759 284.087 285.262 283.682C284.658 283.168 284.644 282.74 285.093 281.807L287.106 277.37C287.612 276.256 288.993 275.69 290.276 276.091C291.627 276.514 292.132 277.42 291.631 278.986L289.945 284.199C289.434 285.786 289.142 286.718 290.494 287.141L292.784 287.857C293.334 288.029 293.695 287.868 293.883 287.453C294.082 287.016 293.995 286.689 293.535 286.146C293.232 285.776 293.188 285.238 293.437 284.343L295.027 278.476C295.662 276.154 294.773 274.653 292.735 274.015C291.567 273.65 290.269 273.743 289.038 274.381C288.657 274.586 288.497 274.361 288.626 274.077L290.566 269.917C290.755 269.502 290.573 269.096 290.069 268.938L287.16 268.028C286.643 267.841 286.18 267.996 285.962 268.477C285.813 268.804 285.842 269.088 286.224 269.457C286.782 269.956 286.797 270.385 286.377 271.252L281.954 280.999C281.571 281.903 281.252 282.202 280.537 282.278C279.934 282.339 279.642 282.522 279.493 282.85C279.275 283.331 279.522 283.708 280.049 283.873Z" fill="#0F0F0F"/>
<path d="M299.523 290.266C301.631 290.925 304.312 290.666 306.118 289.509C306.769 289.113 306.98 288.705 306.733 288.154C306.548 287.697 306.182 287.582 305.522 287.825C303.915 288.37 302.689 288.536 301.337 288.113C300.49 287.848 299.706 287.328 299.381 286.602C299.231 286.356 299.216 286.101 299.285 285.948C299.355 285.795 299.565 285.736 299.883 285.611C300.736 285.229 302.031 285.085 303.184 285.196C304.212 285.293 305.201 285.478 306.35 285.538C307.274 285.578 308.056 285.123 308.452 284.249C309.553 281.823 307.992 278.864 304.877 277.889C301.785 276.922 297.242 278.345 295.644 282.213C294.139 285.761 296.088 289.191 299.523 290.266ZM299.193 282.001C300.006 280.209 301.962 279.298 303.52 279.786C305.009 280.252 305.825 281.68 305.429 282.554C305.24 282.97 304.722 283.132 303.946 283.114C302.652 283.083 300.835 283.338 299.655 283.693C299.356 283.774 299.166 283.789 299.052 283.754C298.685 283.639 298.796 282.875 299.193 282.001Z" fill="#0F0F0F"/>
<path d="M311.43 293.692L316.24 295.197C316.78 295.391 317.298 295.228 317.536 294.704C317.695 294.354 317.653 294.042 317.239 293.687C316.517 293.087 316.512 292.636 316.942 291.748L321.236 282.284C321.619 281.381 321.958 281.038 322.967 281.004C323.56 280.965 323.863 280.76 324.021 280.41C324.259 279.886 323.999 279.48 323.449 279.308L318.639 277.803C318.099 277.609 317.581 277.771 317.343 278.296C317.184 278.645 317.226 278.958 317.64 279.312C318.362 279.912 318.367 280.363 317.937 281.252L313.643 290.716C313.26 291.619 312.921 291.962 311.912 291.996C311.319 292.035 311.016 292.24 310.858 292.589C310.62 293.114 310.88 293.52 311.43 293.692Z" fill="#0F0F0F"/>
<path d="M318.514 295.908L322.751 297.234C323.369 297.428 323.933 297.28 324.162 296.777C324.31 296.449 324.223 296.122 323.727 295.718C323.123 295.204 323.108 294.775 323.557 293.843L325.313 289.974C326.056 288.335 327.484 287.609 328.996 288.082C330.806 288.648 331.227 289.679 330.424 291.449L328.596 295.419C328.193 296.366 327.841 296.681 326.979 296.735C326.285 296.767 325.959 296.965 325.811 297.293C325.583 297.796 325.889 298.216 326.507 298.41L330.768 299.743C331.294 299.907 331.78 299.76 331.998 299.279C332.147 298.951 332.073 298.653 331.668 298.277C331.191 297.829 331.19 297.429 331.619 296.54L333.751 291.841C335.08 288.912 334.269 287.011 331.314 286.087C330.146 285.721 328.815 285.829 327.535 286.402C327.23 286.556 326.998 286.433 327.038 286.171C327.149 285.407 326.996 285.11 326.47 284.945L323.79 284.107C323.273 283.92 322.81 284.075 322.592 284.556C322.443 284.883 322.472 285.167 322.854 285.536C323.412 286.035 323.426 286.464 323.007 287.331L320.419 293.035C320.035 293.938 319.716 294.238 319.002 294.314C318.398 294.375 318.106 294.558 317.957 294.886C317.739 295.366 317.987 295.743 318.514 295.908Z" fill="#0F0F0F"/>
<path d="M334.838 301.016C335.424 301.225 336.488 301.532 337.564 301.869C338.228 302.077 338.648 301.959 338.906 301.391C339.203 300.735 338.844 300.548 338.027 300.042C336.919 299.371 336.756 299.096 337.093 298.353C337.897 296.582 338.884 294.52 339.909 292.32C340.256 291.555 340.345 291.533 340.986 291.734L341.856 292.006C342.543 292.221 342.93 292.117 343.268 291.374C343.615 290.609 343.55 290.29 342.932 290.096L342.016 289.81C341.214 289.559 341.119 289.479 341.36 289.006L342.193 287.344C342.444 286.849 342.294 286.602 341.79 286.445C341.401 286.323 341.122 286.36 340.757 286.645C339.975 287.274 339.38 287.662 338.845 287.919C338.245 288.205 337.746 288.324 336.913 288.488C336.481 288.577 336.205 288.665 336.017 289.081C335.779 289.605 335.81 289.939 336.599 290.161C337.708 290.483 337.829 290.621 337.561 291.211C337.244 291.91 336.535 293.011 335.727 294.331C334.889 295.716 334.134 296.977 333.737 297.852C332.984 299.513 333.311 300.463 334.838 301.016Z" fill="#0F0F0F"/>
<path d="M344.617 304.376C346.725 305.035 349.406 304.776 351.212 303.619C351.862 303.224 352.074 302.815 351.827 302.264C351.642 301.807 351.276 301.692 350.616 301.935C349.009 302.48 347.783 302.646 346.431 302.223C345.584 301.958 344.8 301.438 344.475 300.712C344.325 300.466 344.31 300.211 344.379 300.058C344.449 299.905 344.658 299.846 344.977 299.721C345.83 299.339 347.125 299.195 348.278 299.306C349.306 299.404 350.295 299.588 351.444 299.648C352.368 299.688 353.15 299.234 353.546 298.359C354.647 295.933 353.086 292.974 349.971 291.999C346.879 291.032 342.336 292.456 340.738 296.323C339.233 299.871 341.182 303.301 344.617 304.376ZM344.287 296.111C345.1 294.319 347.056 293.408 348.614 293.896C350.103 294.362 350.919 295.79 350.523 296.665C350.334 297.08 349.816 297.242 349.04 297.224C347.746 297.193 345.929 297.449 344.749 297.803C344.45 297.884 344.26 297.9 344.146 297.864C343.779 297.749 343.89 296.985 344.287 296.111Z" fill="#0F0F0F"/>
<path d="M351.511 306.233L355.749 307.559C356.39 307.76 356.944 307.634 357.172 307.131C357.321 306.803 357.234 306.477 356.715 306.065C356.078 305.566 356.063 305.137 356.502 304.226L358.575 299.658C358.962 298.806 359.668 298.403 360.401 298.632C360.973 298.811 361.103 299.102 361.222 299.763C361.295 300.235 361.468 300.489 361.72 300.567C362.338 300.761 363.371 299.811 363.956 298.522C364.551 297.21 364.121 296.602 363.296 296.344C362.609 296.129 361.767 296.14 360.523 296.749C360.25 296.888 360.044 296.824 360.075 296.584L360.112 296.271C360.193 295.747 360.04 295.45 359.605 295.313L356.787 294.432C356.271 294.245 355.808 294.4 355.59 294.881C355.441 295.208 355.469 295.492 355.851 295.861C356.41 296.36 356.424 296.789 356.005 297.656L353.416 303.36C353.033 304.264 352.714 304.563 351.999 304.639C351.396 304.7 351.104 304.883 350.955 305.211C350.737 305.692 350.984 306.069 351.511 306.233Z" fill="#0F0F0F"/>
<path d="M366.978 311.123C367.161 311.18 367.38 311.274 367.746 311.388C368.365 311.582 368.762 311.456 369.393 310.93C371.106 309.519 374.092 306.685 376.245 304.014C376.673 303.474 377.182 303.16 377.704 303.048C378.323 302.893 378.75 302.702 378.929 302.308C379.167 301.784 378.939 301.363 378.275 301.155L374.633 300.016C374.06 299.837 373.512 300.064 373.304 300.523C373.116 300.939 373.216 301.294 373.549 301.598C374.25 302.242 374.138 302.606 373.617 303.292C372.741 304.415 370.471 306.825 369.12 307.9C368.874 308.097 368.648 308.076 368.626 307.72C368.499 305.983 368.634 303.38 368.816 301.939C368.931 301.052 369.113 300.709 370.316 300.537C370.84 300.476 371.14 300.22 371.268 299.936C371.536 299.346 371.266 298.962 370.625 298.761L366.158 297.364C365.494 297.156 364.946 297.384 364.718 297.887C364.589 298.171 364.623 298.556 364.901 298.867C365.275 299.309 365.473 299.795 365.428 300.53C365.24 303.366 365.175 307.314 365.425 309.414C365.539 310.373 365.777 310.772 366.395 310.966C366.601 311.03 366.771 311.058 366.978 311.123Z" fill="#0F0F0F"/>
<path d="M381.651 300.914L384.056 301.667C384.583 301.831 385 301.662 385.248 301.116C385.724 300.067 385.237 298.891 384.092 298.533C382.924 298.167 381.67 298.798 381.194 299.847C380.956 300.372 381.147 300.756 381.651 300.914ZM379.434 302.342C379.285 302.67 379.314 302.953 379.696 303.322C380.254 303.821 380.269 304.25 379.849 305.117L377.261 310.821C376.877 311.725 376.558 312.024 375.844 312.1C375.24 312.161 374.948 312.344 374.799 312.672C374.581 313.153 374.829 313.53 375.356 313.694L379.501 314.992C380.051 315.164 380.559 315.023 380.778 314.542C380.926 314.215 380.852 313.917 380.412 313.504C379.889 313.041 379.888 312.642 380.317 311.753L383.758 304.169C384.125 303.36 383.93 302.925 383.38 302.753L380.632 301.893C380.115 301.706 379.652 301.861 379.434 302.342Z" fill="#0F0F0F"/>
<path d="M386.714 317.548C388.821 318.207 391.502 317.948 393.309 316.791C393.959 316.396 394.17 315.988 393.924 315.436C393.739 314.979 393.372 314.864 392.713 315.107C391.105 315.653 389.879 315.818 388.528 315.395C387.68 315.13 386.896 314.61 386.571 313.884C386.422 313.638 386.406 313.384 386.476 313.231C386.545 313.078 386.755 313.018 387.073 312.893C387.927 312.512 389.221 312.368 390.374 312.479C391.403 312.576 392.391 312.76 393.541 312.821C394.465 312.86 395.246 312.406 395.643 311.532C396.744 309.106 395.183 306.146 392.068 305.172C388.976 304.204 384.432 305.628 382.835 309.496C381.33 313.043 383.278 316.473 386.714 317.548ZM386.384 309.283C387.197 307.491 389.153 306.581 390.711 307.068C392.199 307.534 393.016 308.963 392.619 309.837C392.431 310.252 391.913 310.414 391.136 310.396C389.842 310.365 388.026 310.621 386.845 310.975C386.547 311.056 386.357 311.072 386.242 311.036C385.876 310.921 385.987 310.157 386.384 309.283Z" fill="#0F0F0F"/>
<path d="M398.399 321.03C399.773 321.46 400.052 321.422 400.729 320.735C401.884 319.574 403.743 317.61 404.553 316.691C404.826 316.377 405.101 316.463 405.079 316.855C404.945 318.535 404.903 320.818 404.944 322.054C404.986 322.941 405.12 323.108 406.494 323.538C407.731 323.925 407.872 323.844 408.615 323.128C410.793 321.039 412.974 318.652 415.097 316.221C415.667 315.601 416.051 315.272 416.625 315.102C417.157 314.969 417.505 314.778 417.673 314.407C417.888 313.875 417.742 313.505 417.193 313.333L413.574 312.2C412.932 312 412.45 312.198 412.225 312.752C412.076 313.08 412.183 313.363 412.412 313.609C413.175 314.347 413.141 314.711 412.601 315.44C411.688 316.702 410.25 318.199 408.816 319.572C408.54 319.835 408.301 319.785 408.29 319.407C408.262 318.026 408.376 315.815 408.619 314.069C408.72 313.327 409.019 313.072 410.042 312.892C410.61 312.795 410.81 312.584 410.939 312.3C411.177 311.775 411.008 311.398 410.436 311.219L405.992 309.828C405.328 309.62 404.875 309.753 404.657 310.234C404.479 310.627 404.621 310.947 404.928 311.367C405.371 312.005 405.346 312.347 404.951 312.872C403.673 314.593 401.966 316.28 401.124 317.04C400.805 317.34 400.586 317.246 400.571 316.818C400.542 315.211 400.555 313.568 400.893 311.727C401.057 310.905 401.14 310.606 402.146 310.522C402.828 310.46 403.206 310.204 403.384 309.811C403.57 309.345 403.358 309.004 402.717 308.803L398.319 307.427C397.723 307.241 397.307 307.41 397.079 307.913C396.95 308.197 397.037 308.524 397.34 308.893C397.63 309.233 397.721 309.611 397.666 310.193C397.345 313.437 397.099 316.63 397.182 319.675C397.202 320.555 397.322 320.693 398.399 321.03Z" fill="#0F0F0F"/>
<path d="M418.349 327.147L422.403 328.416L423.241 328.703C423.859 328.896 424.4 328.741 424.638 328.217C424.82 327.874 424.756 327.555 424.295 327.186C423.459 326.55 423.454 326.099 423.884 325.21L425.441 321.779C425.679 321.254 425.967 321.195 426.425 321.338C428.189 321.89 428.796 323.378 428.468 325.946L428.218 327.764C428.012 329.372 428.107 330.2 429.435 330.616L432.436 331.555C432.939 331.713 433.376 331.5 433.604 330.997C433.812 330.538 433.608 330.125 433.147 329.756C432.177 328.953 432.093 328.678 432.141 326.671L432.16 325.878C432.248 322.686 431.687 321.387 429.772 320.189C429.468 319.994 429.541 319.718 429.912 319.534C431.865 318.573 434.026 318.076 437.161 318.258C437.567 318.285 437.823 318.066 437.972 317.738C438.091 317.476 438.179 316.88 438.24 316.399C438.347 315.759 438.277 315.163 437.636 314.963C436.628 314.647 434.55 315.02 432.751 315.755C430.667 316.601 429.531 317.318 427.649 318.526C427.13 318.863 426.836 318.646 427.014 318.253L428.155 315.74C428.538 314.836 428.877 314.493 430.001 314.495C430.64 314.471 430.942 314.266 431.101 313.916C431.339 313.392 431.056 312.978 430.437 312.785L425.558 311.258C425.009 311.086 424.49 311.249 424.252 311.773C424.094 312.123 424.158 312.442 424.573 312.797C425.304 313.375 425.286 313.819 424.856 314.708L420.563 324.171C420.179 325.074 419.84 325.418 418.831 325.451C418.238 325.49 417.936 325.695 417.777 326.045C417.539 326.569 417.799 326.975 418.349 327.147Z" fill="#0F0F0F"/>
<path d="M440.904 319.454L443.309 320.207C443.836 320.372 444.253 320.203 444.501 319.656C444.977 318.607 444.49 317.432 443.345 317.073C442.177 316.708 440.923 317.339 440.447 318.388C440.209 318.912 440.4 319.297 440.904 319.454ZM438.687 320.882C438.538 321.21 438.567 321.493 438.949 321.863C439.507 322.362 439.521 322.791 439.102 323.658L436.514 329.362C436.13 330.265 435.811 330.565 435.097 330.641C434.493 330.701 434.201 330.884 434.052 331.212C433.834 331.693 434.082 332.07 434.608 332.235L438.754 333.532C439.304 333.704 439.812 333.564 440.031 333.083C440.179 332.755 440.105 332.457 439.664 332.045C439.142 331.582 439.14 331.182 439.57 330.293L443.011 322.709C443.378 321.901 443.183 321.465 442.633 321.293L439.885 320.433C439.368 320.247 438.905 320.401 438.687 320.882Z" fill="#0F0F0F"/>
<path d="M443.077 334.885C443.663 335.093 444.727 335.401 445.803 335.738C446.467 335.946 446.887 335.827 447.145 335.259C447.442 334.603 447.083 334.416 446.266 333.911C445.158 333.24 444.995 332.964 445.332 332.221C446.136 330.451 447.123 328.389 448.148 326.189C448.495 325.424 448.584 325.401 449.225 325.602L450.095 325.874C450.782 326.089 451.169 325.986 451.507 325.243C451.854 324.478 451.789 324.158 451.171 323.965L450.255 323.678C449.453 323.427 449.358 323.348 449.599 322.874L450.432 321.213C450.683 320.717 450.533 320.471 450.029 320.313C449.64 320.191 449.361 320.229 448.996 320.514C448.214 321.143 447.619 321.531 447.084 321.788C446.484 322.074 445.985 322.192 445.152 322.356C444.72 322.445 444.444 322.534 444.256 322.949C444.018 323.474 444.049 323.808 444.838 324.03C445.947 324.352 446.068 324.489 445.8 325.08C445.483 325.779 444.774 326.88 443.966 328.2C443.128 329.585 442.373 330.846 441.976 331.72C441.223 333.381 441.55 334.332 443.077 334.885Z" fill="#0F0F0F"/>
<path d="M463.622 402L473.682 470.254L503.415 407.998L492.91 476.185L539.671 425.458L509.535 487.519L569.169 452.829L522.079 503.25L589.29 487.679L529.43 521.98L598.245 526.911L530.934 542.044L595.237 567.04L526.456 561.661L580.535 604.5L516.396 579.086L555.445 635.962L501.646 592.771L522.197 658.631L483.518 601.501L483.743 670.492L463.622 604.5L443.501 670.492L443.727 601.501L405.048 658.631L425.598 592.771L371.799 635.962L410.849 579.086L346.709 604.5L400.788 561.661L332.007 567.04L396.311 542.044L329 526.911L397.815 521.98L337.955 487.679L405.166 503.25L358.075 452.829L417.71 487.519L387.574 425.458L434.335 476.185L423.83 407.998L453.562 470.254L463.622 402Z" fill="#F14E3A" fill-opacity="0.9"/>
<path d="M440.558 545H442.857V534.588L448.975 545H451.597V531.415H449.298V541.238L443.579 531.415H440.558V545ZM458.232 545.19C460.778 545.19 462.469 544.05 462.792 541.96H460.569C460.398 542.929 459.676 543.48 458.289 543.48C456.579 543.48 455.629 542.416 455.553 540.535H462.83V539.87C462.83 536.317 460.607 534.854 458.137 534.854C455.306 534.854 453.197 536.906 453.197 539.984V540.136C453.197 543.271 455.306 545.19 458.232 545.19ZM455.591 538.996C455.819 537.457 456.75 536.526 458.137 536.526C459.562 536.526 460.436 537.286 460.55 538.996H455.591ZM466.18 545H468.536L470.55 538.312L472.393 545H474.73L477.846 535.063H475.604L473.533 542.245L471.595 535.063H469.676L467.567 542.245L465.591 535.063H463.14L466.18 545ZM480.46 545.133C481.315 545.133 481.999 544.487 481.999 543.67C481.999 542.834 481.315 542.188 480.46 542.188C479.624 542.188 478.94 542.834 478.94 543.67C478.94 544.487 479.624 545.133 480.46 545.133ZM479.548 540.915H481.41L481.771 531.415H479.206L479.548 540.915Z" fill="white"/>
</g>
<defs>
<linearGradient id="paint0_linear_353_4080" x1="152.945" y1="228.058" x2="538.123" y2="443.252" gradientUnits="userSpaceOnUse">
<stop offset="0.02" stop-color="#ACADAD"/>
<stop offset="0.08" stop-color="#CECFCF"/>
<stop offset="0.11" stop-color="#CCCCCD"/>
<stop offset="0.92" stop-color="#B8B8B9"/>
<stop offset="0.98" stop-color="#C3C4C3"/>
<stop offset="1" stop-color="#C9CAC9"/>
</linearGradient>
<linearGradient id="paint1_linear_353_4080" x1="0" y1="363.282" x2="690" y2="363.282" gradientUnits="userSpaceOnUse">
<stop offset="0.55" stop-color="#8C8C8C"/>
<stop offset="0.61" stop-color="#ADADAD"/>
<stop offset="0.92" stop-color="#979898"/>
<stop offset="0.98" stop-color="#A3A3A3"/>
<stop offset="1" stop-color="#AAAAAA"/>
</linearGradient>
<linearGradient id="paint2_linear_353_4080" x1="101.181" y1="570.633" x2="365.717" y2="540.208" gradientUnits="userSpaceOnUse">
<stop stop-color="#969696"/>
<stop offset="0.04" stop-color="#969696"/>
<stop offset="0.97" stop-color="#A1A0A0"/>
<stop offset="1" stop-color="#B5B5B5"/>
</linearGradient>
<linearGradient id="paint3_linear_353_4080" x1="474.213" y1="118.48" x2="232.474" y2="556.108" gradientUnits="userSpaceOnUse">
<stop offset="0.12" stop-color="#B3B3B3"/>
<stop offset="1" stop-color="#B5B5B5"/>
</linearGradient>
<linearGradient id="paint4_linear_353_4080" x1="163.274" y1="209.627" x2="516" y2="407.828" gradientUnits="userSpaceOnUse">
<stop stop-color="#DDDDDF"/>
<stop offset="0.01" stop-color="#E6E7E7"/>
<stop offset="0.04" stop-color="#E2E2E3"/>
<stop offset="0.05" stop-color="#C7C8C9"/>
<stop offset="0.08" stop-color="#EAEAEC"/>
<stop offset="0.09" stop-color="#E2E3E4"/>
<stop offset="0.21" stop-color="#E9E8EA"/>
<stop offset="0.92" stop-color="#D4D4D6"/>
<stop offset="0.98" stop-color="#DFE0E1"/>
<stop offset="1" stop-color="#E5E6E7"/>
</linearGradient>
<linearGradient id="paint5_linear_353_4080" x1="0.204589" y1="382.328" x2="673.617" y2="382.328" gradientUnits="userSpaceOnUse">
<stop offset="0.54" stop-color="#8D8E8E"/>
<stop offset="0.58" stop-color="#B4B4B5"/>
<stop offset="0.65" stop-color="#B9B9BA"/>
<stop offset="0.77" stop-color="#CCCCCD"/>
<stop offset="0.92" stop-color="#B8B8B9"/>
<stop offset="0.98" stop-color="#C3C4C3"/>
<stop offset="1" stop-color="#C9CAC9"/>
</linearGradient>
<linearGradient id="paint6_linear_353_4080" x1="397.567" y1="519.112" x2="528.308" y2="504.074" gradientUnits="userSpaceOnUse">
<stop stop-color="#969696"/>
<stop offset="0.04" stop-color="#969696"/>
<stop offset="0.97" stop-color="#A1A0A0"/>
<stop offset="1" stop-color="#B5B5B5"/>
</linearGradient>
<linearGradient id="paint7_linear_353_4080" x1="427.705" y1="347.102" x2="696.671" y2="316.168" gradientUnits="userSpaceOnUse">
<stop stop-color="#969696"/>
<stop offset="0.04" stop-color="#969696"/>
<stop offset="0.97" stop-color="#A1A0A0"/>
<stop offset="1" stop-color="#B5B5B5"/>
</linearGradient>
<linearGradient id="paint8_linear_353_4080" x1="374.723" y1="566.981" x2="505.871" y2="551.898" gradientUnits="userSpaceOnUse">
<stop stop-color="#969696"/>
<stop offset="0.04" stop-color="#969696"/>
<stop offset="0.97" stop-color="#A1A0A0"/>
<stop offset="1" stop-color="#B5B5B5"/>
</linearGradient>
<linearGradient id="paint9_linear_353_4080" x1="506.369" y1="282.279" x2="692.432" y2="260.879" gradientUnits="userSpaceOnUse">
<stop stop-color="#969696"/>
<stop offset="0.04" stop-color="#969696"/>
<stop offset="0.97" stop-color="#A1A0A0"/>
<stop offset="1" stop-color="#B5B5B5"/>
</linearGradient>
<linearGradient id="paint10_linear_353_4080" x1="408.654" y1="574.222" x2="469.276" y2="567.249" gradientUnits="userSpaceOnUse">
<stop stop-color="#969696"/>
<stop offset="0.04" stop-color="#969696"/>
<stop offset="0.97" stop-color="#A1A0A0"/>
<stop offset="1" stop-color="#B5B5B5"/>
</linearGradient>
<linearGradient id="paint11_linear_353_4080" x1="461.556" y1="473.539" x2="527.587" y2="465.95" gradientUnits="userSpaceOnUse">
<stop stop-color="#969696"/>
<stop offset="0.04" stop-color="#969696"/>
<stop offset="0.97" stop-color="#A1A0A0"/>
<stop offset="1" stop-color="#B5B5B5"/>
</linearGradient>
<linearGradient id="paint12_linear_353_4080" x1="518.45" y1="367.841" x2="585.808" y2="360.093" gradientUnits="userSpaceOnUse">
<stop stop-color="#969696"/>
<stop offset="0.04" stop-color="#969696"/>
<stop offset="0.97" stop-color="#A1A0A0"/>
<stop offset="1" stop-color="#B5B5B5"/>
</linearGradient>
<linearGradient id="paint13_linear_353_4080" x1="462.047" y1="474.851" x2="528.306" y2="467.23" gradientUnits="userSpaceOnUse">
<stop stop-color="#969696"/>
<stop offset="0.04" stop-color="#969696"/>
<stop offset="0.97" stop-color="#A1A0A0"/>
<stop offset="1" stop-color="#B5B5B5"/>
</linearGradient>
<linearGradient id="paint14_linear_353_4080" x1="395.333" y1="545.482" x2="539.202" y2="528.937" gradientUnits="userSpaceOnUse">
<stop stop-color="#969696"/>
<stop offset="0.04" stop-color="#969696"/>
<stop offset="0.97" stop-color="#A1A0A0"/>
<stop offset="1" stop-color="#B5B5B5"/>
</linearGradient>
<linearGradient id="paint15_linear_353_4080" x1="473.714" y1="383.026" x2="641.946" y2="363.679" gradientUnits="userSpaceOnUse">
<stop stop-color="#969696"/>
<stop offset="0.04" stop-color="#969696"/>
<stop offset="0.97" stop-color="#A1A0A0"/>
<stop offset="1" stop-color="#B5B5B5"/>
</linearGradient>
<linearGradient id="paint16_linear_353_4080" x1="617.48" y1="203.699" x2="689.179" y2="195.449" gradientUnits="userSpaceOnUse">
<stop stop-color="#969696"/>
<stop offset="0.04" stop-color="#969696"/>
<stop offset="0.97" stop-color="#A1A0A0"/>
<stop offset="1" stop-color="#B5B5B5"/>
</linearGradient>
<clipPath id="clip0_353_4080">
<rect width="690" height="697" fill="white"/>
</clipPath>
</defs>
</svg>
