<svg width="1628" height="2123" viewBox="0 0 1628 2123" fill="none" xmlns="http://www.w3.org/2000/svg">
<path d="M8 103.696C8 48.5848 52.6765 3.9082 107.788 3.9082H1523.21C1578.32 3.9082 1623 48.5847 1623 103.696V2012.12C1623 2067.23 1578.32 2111.91 1523.21 2111.91H107.788C52.6765 2111.91 8 2067.23 8 2012.12V103.696Z" fill="url(#paint0_angular_357_4494)"/>
<path d="M17 110.169C17 56.1599 60.7829 12.377 114.792 12.377H1517.23C1571.24 12.377 1615.03 56.1599 1615.03 110.169V2006.14C1615.03 2060.14 1571.24 2103.93 1517.23 2103.93H114.792C60.783 2103.93 17 2060.14 17 2006.14V110.169Z" fill="#121212"/>
<path d="M1517.23 10.8801H114.792C59.9563 10.8801 15.5032 55.3332 15.5032 110.169V2006.14C15.5032 2060.97 59.9563 2105.42 114.792 2105.42H1517.23C1572.07 2105.42 1616.52 2060.97 1616.52 2006.14V110.169C1616.52 55.3332 1572.07 10.8801 1517.23 10.8801Z" stroke="#475B64" stroke-opacity="0.4" stroke-width="2.99363"/>
<g clip-path="url(#clip0_357_4494)">
<rect x="79" y="73.2812" width="1473.26" height="1968.74" rx="43" fill="white"/>
<mask id="mask0_357_4494" style="mask-type:alpha" maskUnits="userSpaceOnUse" x="79" y="73" width="1474" height="1970">
<rect x="79" y="73.2812" width="1473.26" height="1968.74" rx="26.9427" fill="#C4C4C4"/>
</mask>
<g mask="url(#mask0_357_4494)">
</g>
<rect width="1473" height="302" transform="translate(79 73)" fill="#FFBB25"/>
<rect x="247" y="279" width="193" height="193" rx="24" fill="white"/>
<g clip-path="url(#clip1_357_4494)">
<path d="M343 380.625C346.107 380.625 348.625 378.107 348.625 375C348.625 371.893 346.107 369.375 343 369.375C339.893 369.375 337.375 371.893 337.375 375C337.375 378.107 339.893 380.625 343 380.625Z" fill="#080C14"/>
<path fill-rule="evenodd" clip-rule="evenodd" d="M388 375C388 399.853 367.853 420 343 420C318.147 420 298 399.853 298 375C298 350.147 318.147 330 343 330C367.853 330 388 350.147 388 375ZM359.875 352.5L331.75 363.75L320.5 391.875L326.125 397.5L354.25 386.25L365.5 358.125L359.875 352.5Z" fill="#080C14"/>
</g>
<rect x="248.5" y="280.5" width="190" height="190" rx="22.5" stroke="black" stroke-opacity="0.1" stroke-width="3"/>
<path d="M273.942 621H289.766L293.378 621.086C295.958 621.086 297.764 620.054 297.85 617.99C297.85 616.528 297.076 615.496 294.668 614.722C290.54 613.432 289.766 611.884 289.852 608.358V569.486C289.852 567.508 290.54 566.648 292.26 566.648C294.668 566.648 297.85 568.54 301.806 572.324C303.784 574.216 305.934 576.968 307.912 576.968C309.116 576.968 310.32 576.108 310.32 573.786C310.32 571.12 309.632 566.218 308.772 563.036C307.654 558.908 306.536 558.478 302.924 558.478H263.536C260.87 558.478 259.322 559.94 258.548 562.864C257.688 565.702 257 570.432 257 573.184C257 575.334 257.602 576.968 259.408 576.968C261.128 576.968 262.59 575.42 265.342 572.496C268.954 568.626 272.222 566.648 274.974 566.648C276.866 566.648 277.468 567.508 277.468 569.486V608.358C277.554 611.884 276.866 613.432 272.738 614.636C270.33 615.41 269.556 616.442 269.556 617.818C269.556 619.882 271.362 621 273.942 621ZM314.9 621H330.81C333.132 621 334.766 619.882 334.766 617.904C334.766 616.614 333.992 615.582 331.756 614.722C329.004 613.604 328.316 612.142 328.402 608.444V590.986C328.402 586.6 332.1 583.16 336.916 583.16C341.99 583.16 345 585.74 345.688 591.674L347.924 611.454C348.612 617.474 349.042 621 354.116 621H362.716C364.78 621 365.726 620.054 365.726 618.42C365.726 616.7 364.952 615.668 362.63 614.292C361.082 613.346 360.136 611.54 359.62 608.186L356.094 586.256C354.718 577.57 349.558 573.356 341.904 573.356C337.518 573.356 333.39 575.076 330.294 578.602C329.348 579.72 328.488 579.118 328.488 578L328.66 561.574C328.66 559.94 327.456 558.736 325.564 558.736H314.642C312.664 558.65 311.374 559.682 311.374 561.574C311.374 562.864 311.89 563.81 313.696 564.67C316.276 565.788 316.964 567.25 316.878 570.69V609.046C316.964 612.572 316.362 613.948 314.126 614.98C312.234 615.84 311.546 616.786 311.546 618.076C311.546 619.968 312.922 621 314.9 621ZM388.466 622.032C396.378 622.032 404.806 618.248 409.02 612.314C410.568 610.25 410.654 608.616 409.02 606.982C407.73 605.606 406.354 605.606 404.548 607.154C400.076 610.766 396.292 612.658 391.218 612.658C388.036 612.658 384.682 611.712 382.532 609.562C381.672 608.874 381.242 608.014 381.242 607.412C381.242 606.81 381.844 606.38 382.704 605.606C384.94 603.37 388.982 601.478 392.938 600.618C396.464 599.844 399.99 599.414 403.86 598.382C406.956 597.522 408.848 595.114 408.848 591.674C408.848 582.128 399.302 573.614 387.606 573.614C375.996 573.614 363.182 583.418 363.698 598.468C364.042 612.314 375.566 622.032 388.466 622.032ZM375.05 593.91C375.05 586.858 380.124 581.612 385.972 581.612C391.562 581.612 396.378 585.654 396.378 589.094C396.378 590.728 394.916 591.846 392.336 592.62C388.036 593.91 382.446 596.748 379.092 599.242C378.232 599.844 377.63 600.102 377.2 600.102C375.824 600.102 375.05 597.35 375.05 593.91ZM432.638 621H447.602L451.128 621.086C453.536 621.086 455.342 619.968 455.342 617.99C455.342 616.528 454.568 615.496 452.332 614.722C448.376 613.432 447.602 611.884 447.688 608.358V604.058C447.688 602.596 448.204 602.08 449.494 601.736C451.988 600.962 454.826 600.188 458.094 599.328C470.994 596.06 479.508 587.976 479.508 577.484C479.508 566.476 470.736 558.478 458.266 558.478H432.638C430.574 558.392 429.112 559.51 429.112 561.574C429.112 562.95 429.714 563.982 431.606 564.756C434.874 566.046 435.562 567.594 435.476 571.12V608.358C435.562 611.884 434.96 613.432 431.692 614.636C429.8 615.41 429.112 616.442 429.112 617.818C429.112 619.882 430.574 621 432.638 621ZM447.86 590.986V569.658C447.86 567.594 448.118 566.992 450.182 566.906H454.396C461.276 566.906 466.178 571.894 466.178 579.032C466.178 585.052 461.534 588.578 456.718 590.642C454.052 591.76 451.128 592.534 449.322 592.534C448.29 592.534 447.86 592.104 447.86 590.986ZM504.199 622.29C517.615 622.29 527.849 612.228 527.849 597.952C527.849 584.106 517.615 573.356 504.285 573.356C489.665 573.356 479.345 583.676 479.345 598.21C479.345 611.712 490.181 622.29 504.199 622.29ZM491.127 594.082C491.127 586.944 495.513 581.87 501.619 581.87C509.445 581.87 515.981 591.33 515.981 601.478C515.981 608.616 511.681 613.776 505.575 613.776C497.835 613.776 491.127 604.316 491.127 594.082ZM530.81 621H546.72C549.128 621 550.762 619.968 550.762 617.99C550.762 616.7 549.988 615.668 547.666 614.808C544.828 613.776 544.14 612.314 544.226 608.702V590.728C544.226 587.374 545.946 585.224 548.698 585.224C550.848 585.224 551.708 586.084 553.084 588.234C554.03 589.782 554.976 590.47 555.922 590.47C558.244 590.47 560.222 586.084 560.222 581.01C560.222 575.85 557.9 574.216 554.804 574.216C552.224 574.216 549.472 575.162 546.29 578.602C545.602 579.376 544.828 579.376 544.57 578.516L544.226 577.398C543.71 575.506 542.764 574.646 541.13 574.646H530.552C528.574 574.56 527.284 575.592 527.284 577.484C527.284 578.774 527.8 579.72 529.606 580.58C532.186 581.698 532.874 583.16 532.788 586.6V609.046C532.874 612.572 532.272 613.948 530.036 614.98C528.144 615.84 527.456 616.786 527.456 618.076C527.456 619.968 528.832 621 530.81 621ZM575.961 621C578.197 621.086 582.153 621 586.195 621C588.689 621 589.893 620.14 589.893 617.904C589.893 615.324 588.431 615.066 584.991 614.206C580.347 613.088 579.401 612.314 579.401 609.39C579.401 602.424 579.573 594.254 579.659 585.568C579.659 582.558 579.917 582.386 582.325 582.386H585.593C588.173 582.386 589.291 581.612 589.291 578.688C589.291 575.678 588.603 574.646 586.281 574.646H582.841C579.831 574.646 579.401 574.474 579.487 572.582L579.745 565.96C579.831 563.982 578.971 563.294 577.079 563.294C575.617 563.294 574.757 563.724 573.983 565.1C572.349 568.11 570.973 570.088 569.597 571.55C568.049 573.184 566.587 574.13 564.093 575.592C562.803 576.366 562.029 576.968 562.029 578.602C562.029 580.666 562.631 581.784 565.555 581.698C569.683 581.612 570.285 581.956 570.285 584.278C570.285 587.03 569.597 591.588 568.909 597.006C568.221 602.682 567.619 607.842 567.619 611.282C567.619 617.818 570.113 620.742 575.961 621ZM596.234 621H612.144C614.552 621 616.186 619.882 616.186 617.904C616.186 616.614 615.412 615.582 613.09 614.722C610.252 613.604 609.564 612.142 609.65 608.444V584.536C609.65 582.386 610.338 581.354 612.574 581.354H614.982C617.734 581.354 619.196 580.15 619.196 577.828C619.196 575.678 617.906 574.56 615.326 574.56C607.844 574.56 603.63 571.636 603.63 567.766C603.63 565.616 604.92 564.24 606.898 564.24C608.962 564.24 610.854 565.186 613.434 567.508C614.208 568.11 614.81 568.798 615.756 568.798C616.788 568.798 617.734 567.766 619.282 565.53C621.346 562.606 621.432 560.714 618.594 559.252C615.584 557.704 611.628 556.844 607.328 556.844C599.502 556.844 593.482 561.23 593.482 566.476C593.482 569.142 594.686 571.034 596.75 572.754C597.782 573.614 597.782 574.818 595.89 574.904C592.794 575.076 591.762 576.28 591.762 578.344C591.762 580.408 592.966 581.182 595.46 581.784C597.524 582.3 598.212 583.074 598.212 585.568V609.046C598.298 612.572 597.696 613.948 595.46 614.98C593.568 615.84 592.88 616.786 592.88 618.076C592.88 619.968 594.256 621 596.234 621ZM642.101 622.29C655.517 622.29 665.751 612.228 665.751 597.952C665.751 584.106 655.517 573.356 642.187 573.356C627.567 573.356 617.247 583.676 617.247 598.21C617.247 611.712 628.083 622.29 642.101 622.29ZM629.029 594.082C629.029 586.944 633.415 581.87 639.521 581.87C647.347 581.87 653.883 591.33 653.883 601.478C653.883 608.616 649.583 613.776 643.477 613.776C635.737 613.776 629.029 604.316 629.029 594.082ZM668.718 621H684.37C686.434 621 687.896 619.968 687.896 618.076C687.896 616.786 687.208 615.84 685.144 614.894C682.736 613.862 682.134 612.486 682.22 608.96V563.122C682.22 559.94 680.93 558.65 678.866 558.65H668.46C666.482 558.564 665.192 559.596 665.192 561.488C665.192 562.778 665.708 563.724 667.514 564.584C670.094 565.702 670.782 567.164 670.696 570.604V609.046C670.782 612.572 670.18 613.948 667.944 614.98C666.052 615.84 665.364 616.786 665.364 618.076C665.364 619.968 666.74 621 668.718 621ZM694.618 570.174H703.648C705.626 570.174 706.744 569.142 706.744 566.992C706.744 562.864 703.39 559.338 699.09 559.338C694.704 559.338 691.522 562.864 691.522 566.992C691.522 569.056 692.726 570.174 694.618 570.174ZM689.458 577.484C689.458 578.774 689.974 579.72 691.78 580.58C694.36 581.698 695.048 583.16 694.962 586.6V609.046C695.048 612.572 694.446 613.948 692.21 614.98C690.318 615.84 689.63 616.786 689.63 618.076C689.63 619.968 691.006 621 692.984 621H708.55C710.614 621 712.076 619.968 712.076 618.076C712.076 616.786 711.388 615.84 709.324 614.894C706.916 613.862 706.314 612.486 706.4 608.96V579.118C706.4 575.936 705.11 574.646 703.046 574.646H692.726C690.748 574.56 689.458 575.592 689.458 577.484ZM736.164 622.29C749.58 622.29 759.814 612.228 759.814 597.952C759.814 584.106 749.58 573.356 736.25 573.356C721.63 573.356 711.31 583.676 711.31 598.21C711.31 611.712 722.146 622.29 736.164 622.29ZM723.092 594.082C723.092 586.944 727.478 581.87 733.584 581.87C741.41 581.87 747.946 591.33 747.946 601.478C747.946 608.616 743.646 613.776 737.54 613.776C729.8 613.776 723.092 604.316 723.092 594.082ZM782.517 621H797.481L801.007 621.086C803.415 621.086 805.221 619.968 805.221 617.99C805.221 616.528 804.447 615.496 802.211 614.722C798.255 613.432 797.481 611.884 797.567 608.358V604.058C797.567 602.596 798.083 602.08 799.373 601.736C801.867 600.962 804.705 600.188 807.973 599.328C820.873 596.06 829.387 587.976 829.387 577.484C829.387 566.476 820.615 558.478 808.145 558.478H782.517C780.453 558.392 778.991 559.51 778.991 561.574C778.991 562.95 779.593 563.982 781.485 564.756C784.753 566.046 785.441 567.594 785.355 571.12V608.358C785.441 611.884 784.839 613.432 781.571 614.636C779.679 615.41 778.991 616.442 778.991 617.818C778.991 619.882 780.453 621 782.517 621ZM797.739 590.986V569.658C797.739 567.594 797.997 566.992 800.061 566.906H804.275C811.155 566.906 816.057 571.894 816.057 579.032C816.057 585.052 811.413 588.578 806.597 590.642C803.931 591.76 801.007 592.534 799.201 592.534C798.169 592.534 797.739 592.104 797.739 590.986ZM834.749 621H850.659C853.067 621 854.701 619.968 854.701 617.99C854.701 616.7 853.927 615.668 851.605 614.808C848.767 613.776 848.079 612.314 848.165 608.702V590.728C848.165 587.374 849.885 585.224 852.637 585.224C854.787 585.224 855.647 586.084 857.023 588.234C857.969 589.782 858.915 590.47 859.861 590.47C862.183 590.47 864.161 586.084 864.161 581.01C864.161 575.85 861.839 574.216 858.743 574.216C856.163 574.216 853.411 575.162 850.229 578.602C849.541 579.376 848.767 579.376 848.509 578.516L848.165 577.398C847.649 575.506 846.703 574.646 845.069 574.646H834.491C832.513 574.56 831.223 575.592 831.223 577.484C831.223 578.774 831.739 579.72 833.545 580.58C836.125 581.698 836.813 583.16 836.727 586.6V609.046C836.813 612.572 836.211 613.948 833.975 614.98C832.083 615.84 831.395 616.786 831.395 618.076C831.395 619.968 832.771 621 834.749 621ZM889.517 622.032C897.429 622.032 905.857 618.248 910.071 612.314C911.619 610.25 911.705 608.616 910.071 606.982C908.781 605.606 907.405 605.606 905.599 607.154C901.127 610.766 897.343 612.658 892.269 612.658C889.087 612.658 885.733 611.712 883.583 609.562C882.723 608.874 882.293 608.014 882.293 607.412C882.293 606.81 882.895 606.38 883.755 605.606C885.991 603.37 890.033 601.478 893.989 600.618C897.515 599.844 901.041 599.414 904.911 598.382C908.007 597.522 909.899 595.114 909.899 591.674C909.899 582.128 900.353 573.614 888.657 573.614C877.047 573.614 864.233 583.418 864.749 598.468C865.093 612.314 876.617 622.032 889.517 622.032ZM876.101 593.91C876.101 586.858 881.175 581.612 887.023 581.612C892.613 581.612 897.429 585.654 897.429 589.094C897.429 590.728 895.967 591.846 893.387 592.62C889.087 593.91 883.497 596.748 880.143 599.242C879.283 599.844 878.681 600.102 878.251 600.102C876.875 600.102 876.101 597.35 876.101 593.91ZM932.006 622.204C943.444 622.376 952.732 616.356 952.732 607.412C952.732 599.586 948.346 595.372 937.338 592.534C928.222 590.126 925.384 588.578 925.384 585.482C925.384 582.472 928.394 580.322 932.006 580.322C935.274 580.322 938.456 581.784 941.982 585.052C944.734 587.718 945.594 588.836 946.626 588.836C947.486 588.836 948.174 588.406 948.862 587.546C951.786 583.418 952.044 580.924 949.464 578.516C946.454 575.678 939.746 573.356 933.64 573.356C922.288 573.356 914.204 579.892 914.204 588.148C914.204 595.372 918.762 599.07 929.426 601.994C938.628 604.488 941.466 606.638 941.466 609.82C941.466 612.658 938.198 615.238 933.812 615.238C930.372 615.238 926.76 613.518 922.718 609.304C920.568 607.068 919.45 605.692 918.074 605.692C917.128 605.692 916.354 606.208 915.666 607.154C912.226 611.54 912.14 614.292 915.15 616.958C918.246 619.624 925.04 622.118 932.006 622.204ZM979.297 622.032C987.209 622.032 995.637 618.248 999.851 612.314C1001.4 610.25 1001.48 608.616 999.851 606.982C998.561 605.606 997.185 605.606 995.379 607.154C990.907 610.766 987.123 612.658 982.049 612.658C978.867 612.658 975.513 611.712 973.363 609.562C972.503 608.874 972.073 608.014 972.073 607.412C972.073 606.81 972.675 606.38 973.535 605.606C975.771 603.37 979.813 601.478 983.769 600.618C987.295 599.844 990.821 599.414 994.691 598.382C997.787 597.522 999.679 595.114 999.679 591.674C999.679 582.128 990.133 573.614 978.437 573.614C966.827 573.614 954.013 583.418 954.529 598.468C954.873 612.314 966.397 622.032 979.297 622.032ZM965.881 593.91C965.881 586.858 970.955 581.612 976.803 581.612C982.393 581.612 987.209 585.654 987.209 589.094C987.209 590.728 985.747 591.846 983.167 592.62C978.867 593.91 973.277 596.748 969.923 599.242C969.063 599.844 968.461 600.102 968.031 600.102C966.655 600.102 965.881 597.35 965.881 593.91ZM1004.55 621H1020.46C1022.78 621 1024.41 619.882 1024.41 617.904C1024.41 616.614 1023.64 615.582 1021.4 614.722C1018.65 613.604 1017.96 612.142 1018.05 608.444V593.222C1018.05 586.772 1021.66 582.73 1027.34 582.73C1034.13 582.73 1037.06 585.826 1037.06 592.792L1036.97 608.444C1037.06 612.142 1036.37 613.604 1033.62 614.722C1031.38 615.582 1030.61 616.614 1030.61 617.904C1030.61 619.882 1032.24 621 1034.56 621H1050.56C1052.54 621 1053.91 619.968 1053.91 618.076C1053.91 616.786 1053.22 615.84 1051.33 614.98C1049.1 613.948 1048.49 612.572 1048.58 609.046V590.556C1048.58 579.032 1043.08 573.356 1031.98 573.356C1027.6 573.356 1023.38 575.162 1020.03 578.516C1019.25 579.376 1018.31 579.204 1018.05 578.258C1017.28 575.506 1016.33 574.646 1014.35 574.646H1004.29C1002.31 574.56 1001.02 575.592 1001.02 577.484C1001.02 578.774 1001.54 579.72 1003.34 580.58C1005.92 581.698 1006.61 583.16 1006.53 586.6V609.046C1006.61 612.572 1006.01 613.948 1003.77 614.98C1001.88 615.84 1001.19 616.786 1001.19 618.076C1001.19 619.968 1002.57 621 1004.55 621ZM1065.84 621C1068.08 621.086 1072.03 621 1076.08 621C1078.57 621 1079.77 620.14 1079.77 617.904C1079.77 615.324 1078.31 615.066 1074.87 614.206C1070.23 613.088 1069.28 612.314 1069.28 609.39C1069.28 602.424 1069.45 594.254 1069.54 585.568C1069.54 582.558 1069.8 582.386 1072.21 582.386H1075.47C1078.05 582.386 1079.17 581.612 1079.17 578.688C1079.17 575.678 1078.48 574.646 1076.16 574.646H1072.72C1069.71 574.646 1069.28 574.474 1069.37 572.582L1069.63 565.96C1069.71 563.982 1068.85 563.294 1066.96 563.294C1065.5 563.294 1064.64 563.724 1063.86 565.1C1062.23 568.11 1060.85 570.088 1059.48 571.55C1057.93 573.184 1056.47 574.13 1053.97 575.592C1052.68 576.366 1051.91 576.968 1051.91 578.602C1051.91 580.666 1052.51 581.784 1055.44 581.698C1059.56 581.612 1060.17 581.956 1060.17 584.278C1060.17 587.03 1059.48 591.588 1058.79 597.006C1058.1 602.682 1057.5 607.842 1057.5 611.282C1057.5 617.818 1059.99 620.742 1065.84 621ZM1097.34 621.86C1102.24 621.86 1107.32 620.57 1111.62 617.56C1113.34 616.356 1113.94 616.442 1115.4 617.904C1117.46 620.398 1120.22 621.43 1124.34 621.43C1127.87 621.43 1130.02 620.14 1130.02 618.162C1130.02 616.958 1129.59 615.926 1128.56 615.066C1126.06 612.744 1124.69 610.594 1123.66 604.402L1121.42 591.072C1119.36 578.946 1112.91 573.7 1099.92 573.7C1094.59 573.7 1087.62 574.99 1083.92 576.882C1081.17 578.172 1080.83 580.752 1082.89 585.31C1084.1 587.804 1085.47 588.406 1087.79 587.03C1091.92 584.192 1096.14 581.784 1100.44 581.784C1106.28 581.784 1108.95 585.912 1108.95 589.61C1108.95 590.47 1108.61 590.9 1107.75 590.9C1106.28 590.9 1102.93 589.868 1099.15 589.868C1089.34 589.868 1080.48 596.662 1080.48 605.95C1080.48 615.324 1087.45 621.86 1097.34 621.86ZM1092.52 605.262C1092.52 601.478 1095.62 597.092 1103.27 597.092C1109.38 597.092 1110.58 598.726 1111.27 602.08L1112.22 606.81C1113.08 611.024 1108.61 614.034 1101.9 614.034C1096.05 614.034 1092.52 609.648 1092.52 605.262ZM1140.84 621C1143.08 621.086 1147.03 621 1151.07 621C1153.57 621 1154.77 620.14 1154.77 617.904C1154.77 615.324 1153.31 615.066 1149.87 614.206C1145.23 613.088 1144.28 612.314 1144.28 609.39C1144.28 602.424 1144.45 594.254 1144.54 585.568C1144.54 582.558 1144.8 582.386 1147.2 582.386H1150.47C1153.05 582.386 1154.17 581.612 1154.17 578.688C1154.17 575.678 1153.48 574.646 1151.16 574.646H1147.72C1144.71 574.646 1144.28 574.474 1144.37 572.582L1144.62 565.96C1144.71 563.982 1143.85 563.294 1141.96 563.294C1140.5 563.294 1139.64 563.724 1138.86 565.1C1137.23 568.11 1135.85 570.002 1134.22 571.636C1132.33 573.528 1130.86 574.646 1126.99 576.452C1125.7 577.054 1124.93 577.742 1124.93 579.29C1124.93 581.612 1125.53 582.558 1128.37 582.472C1134.56 582.386 1135.08 582.558 1135.08 584.278C1135.08 587.03 1134.48 591.588 1133.79 597.006C1133.1 602.682 1132.5 607.842 1132.5 611.282C1132.5 617.818 1134.99 620.742 1140.84 621ZM1162.33 570.174H1171.36C1173.33 570.174 1174.45 569.142 1174.45 566.992C1174.45 562.864 1171.1 559.338 1166.8 559.338C1162.41 559.338 1159.23 562.864 1159.23 566.992C1159.23 569.056 1160.43 570.174 1162.33 570.174ZM1157.17 577.484C1157.17 578.774 1157.68 579.72 1159.49 580.58C1162.07 581.698 1162.76 583.16 1162.67 586.6V609.046C1162.76 612.572 1162.15 613.948 1159.92 614.98C1158.03 615.84 1157.34 616.786 1157.34 618.076C1157.34 619.968 1158.71 621 1160.69 621H1176.26C1178.32 621 1179.78 619.968 1179.78 618.076C1179.78 616.786 1179.1 615.84 1177.03 614.894C1174.62 613.862 1174.02 612.486 1174.11 608.96V579.118C1174.11 575.936 1172.82 574.646 1170.75 574.646H1160.43C1158.46 574.56 1157.17 575.592 1157.17 577.484ZM1203.87 622.29C1217.29 622.29 1227.52 612.228 1227.52 597.952C1227.52 584.106 1217.29 573.356 1203.96 573.356C1189.34 573.356 1179.02 583.676 1179.02 598.21C1179.02 611.712 1189.85 622.29 1203.87 622.29ZM1190.8 594.082C1190.8 586.944 1195.19 581.87 1201.29 581.87C1209.12 581.87 1215.65 591.33 1215.65 601.478C1215.65 608.616 1211.35 613.776 1205.25 613.776C1197.51 613.776 1190.8 604.316 1190.8 594.082ZM1230.38 621H1246.29C1248.61 621 1250.25 619.882 1250.25 617.904C1250.25 616.614 1249.47 615.582 1247.24 614.722C1244.49 613.604 1243.8 612.142 1243.88 608.444V593.222C1243.88 586.772 1247.5 582.73 1253.17 582.73C1259.97 582.73 1262.89 585.826 1262.89 592.792L1262.8 608.444C1262.89 612.142 1262.2 613.604 1259.45 614.722C1257.21 615.582 1256.44 616.614 1256.44 617.904C1256.44 619.882 1258.07 621 1260.4 621H1276.39C1278.37 621 1279.75 619.968 1279.75 618.076C1279.75 616.786 1279.06 615.84 1277.17 614.98C1274.93 613.948 1274.33 612.572 1274.41 609.046V590.556C1274.41 579.032 1268.91 573.356 1257.82 573.356C1253.43 573.356 1249.22 575.162 1245.86 578.516C1245.09 579.376 1244.14 579.204 1243.88 578.258C1243.11 575.506 1242.16 574.646 1240.19 574.646H1230.12C1228.15 574.56 1226.86 575.592 1226.86 577.484C1226.86 578.774 1227.37 579.72 1229.18 580.58C1231.76 581.698 1232.45 583.16 1232.36 586.6V609.046C1232.45 612.572 1231.84 613.948 1229.61 614.98C1227.72 615.84 1227.03 616.786 1227.03 618.076C1227.03 619.968 1228.4 621 1230.38 621Z" fill="black"/>
<rect x="257" y="687" width="652" height="59" rx="8" fill="#E2E2E2"/>
<rect x="257" y="897" width="1127" height="555" rx="8" fill="#E2E2E2"/>
<rect x="257" y="1506" width="234" height="59" rx="8" fill="#E2E2E2"/>
<rect x="257" y="1597" width="1016" height="59" rx="8" fill="#E2E2E2"/>
<rect x="257" y="1688" width="909" height="59" rx="8" fill="#E2E2E2"/>
<rect x="257" y="1779" width="970" height="59" rx="8" fill="#E2E2E2"/>
</g>
<rect x="80.25" y="74.5312" width="1470.76" height="1966.24" rx="41.75" stroke="#202020" stroke-width="2.5"/>
<g filter="url(#filter0_i_357_4494)">
<ellipse cx="816.477" cy="37.3876" rx="12.4768" ry="12.4794" fill="#1A1D22" fill-opacity="0.5"/>
</g>
<ellipse cx="816.973" cy="37.8852" rx="7.98514" ry="7.98679" fill="url(#paint1_angular_357_4494)"/>
<ellipse cx="816.973" cy="37.8852" rx="7.98514" ry="7.98679" fill="url(#paint2_radial_357_4494)"/>
<path d="M1622.99 241.441V241.441C1625.76 241.441 1628 243.684 1628 246.451V310.569C1628 313.335 1625.76 315.578 1622.99 315.578V315.578V241.441Z" fill="url(#paint3_linear_357_4494)"/>
<path d="M1622.99 151.275V151.275C1625.76 151.275 1628 153.518 1628 156.284V220.402C1628 223.169 1625.76 225.412 1622.99 225.412V225.412V151.275Z" fill="url(#paint4_linear_357_4494)"/>
<g filter="url(#filter1_ii_357_4494)">
<path d="M1431.64 5.00923C1431.64 2.24271 1433.89 0 1436.65 0H1515.8C1518.57 0 1520.81 2.24271 1520.81 5.00923V5.00923H1431.64V5.00923Z" fill="url(#paint5_linear_357_4494)"/>
</g>
<rect x="519" y="3.9082" width="17" height="6" fill="#8E8D93"/>
<rect x="519" y="2106.91" width="17" height="5" fill="#36383A"/>
<rect x="1032" y="3.9082" width="17" height="6" fill="#8E8D93"/>
<rect x="1032" y="2105.83" width="16.9475" height="5.97983" fill="#36383A"/>
<rect x="1618" y="121.854" width="15.9462" height="5.30223" transform="rotate(-90 1618 121.854)" fill="#95969A"/>
<rect x="1616.69" y="2002.91" width="15.9462" height="5.30223" transform="rotate(-90 1616.69 2002.91)" fill="#57575C"/>
<rect x="8" y="2002.91" width="16" height="6" transform="rotate(-90 8 2002.91)" fill="#57575C"/>
<rect x="8" y="121.854" width="15.9462" height="5.98146" transform="rotate(-90 8 121.854)" fill="#95969A"/>
<circle cx="917.375" cy="35.9077" r="11" fill="black"/>
<circle cx="766.094" cy="35.9077" r="11" fill="black"/>
<circle cx="713" cy="35.9077" r="11" fill="black"/>
<defs>
<filter id="filter0_i_357_4494" x="804" y="24.9082" width="26.9489" height="26.9542" filterUnits="userSpaceOnUse" color-interpolation-filters="sRGB">
<feFlood flood-opacity="0" result="BackgroundImageFix"/>
<feBlend mode="normal" in="SourceGraphic" in2="BackgroundImageFix" result="shape"/>
<feColorMatrix in="SourceAlpha" type="matrix" values="0 0 0 0 0 0 0 0 0 0 0 0 0 0 0 0 0 0 127 0" result="hardAlpha"/>
<feOffset dx="1.99575" dy="1.99575"/>
<feGaussianBlur stdDeviation="1.24735"/>
<feComposite in2="hardAlpha" operator="arithmetic" k2="-1" k3="1"/>
<feColorMatrix type="matrix" values="0 0 0 0 0.0431373 0 0 0 0 0.0431373 0 0 0 0 0.0431373 0 0 0 1 0"/>
<feBlend mode="normal" in2="shape" result="effect1_innerShadow_357_4494"/>
</filter>
<filter id="filter1_ii_357_4494" x="1431.64" y="0" width="89.1641" height="5.00928" filterUnits="userSpaceOnUse" color-interpolation-filters="sRGB">
<feFlood flood-opacity="0" result="BackgroundImageFix"/>
<feBlend mode="normal" in="SourceGraphic" in2="BackgroundImageFix" result="shape"/>
<feColorMatrix in="SourceAlpha" type="matrix" values="0 0 0 0 0 0 0 0 0 0 0 0 0 0 0 0 0 0 127 0" result="hardAlpha"/>
<feOffset dy="2.00369"/>
<feComposite in2="hardAlpha" operator="arithmetic" k2="-1" k3="1"/>
<feColorMatrix type="matrix" values="0 0 0 0 0.603922 0 0 0 0 0.67451 0 0 0 0 0.733333 0 0 0 0.5 0"/>
<feBlend mode="normal" in2="shape" result="effect1_innerShadow_357_4494"/>
<feColorMatrix in="SourceAlpha" type="matrix" values="0 0 0 0 0 0 0 0 0 0 0 0 0 0 0 0 0 0 127 0" result="hardAlpha"/>
<feOffset dy="1.00185"/>
<feComposite in2="hardAlpha" operator="arithmetic" k2="-1" k3="1"/>
<feColorMatrix type="matrix" values="0 0 0 0 0.709804 0 0 0 0 0.74902 0 0 0 0 0.780392 0 0 0 1 0"/>
<feBlend mode="normal" in2="effect1_innerShadow_357_4494" result="effect2_innerShadow_357_4494"/>
</filter>
<radialGradient id="paint0_angular_357_4494" cx="0" cy="0" r="1" gradientUnits="userSpaceOnUse" gradientTransform="translate(815.5 1057.91) rotate(90) scale(1054 807.5)">
<stop stop-color="#B7B8BA"/>
<stop offset="0.0982781" stop-color="#ABADB1"/>
<stop offset="0.127907" stop-color="#A7A8AC"/>
<stop offset="0.251954" stop-color="#B3B4BA"/>
<stop offset="0.370813" stop-color="#ADAEB4"/>
<stop offset="0.409623" stop-color="#D1D2D7"/>
<stop offset="0.500156" stop-color="#BCBDC2"/>
<stop offset="0.624414" stop-color="#BFBFC4"/>
<stop offset="0.75138" stop-color="#A2A2A6"/>
<stop offset="0.884339" stop-color="#9D9CA2"/>
<stop offset="0.959452" stop-color="#9A9BA1"/>
<stop offset="1" stop-color="#C4C5C6"/>
</radialGradient>
<radialGradient id="paint1_angular_357_4494" cx="0" cy="0" r="1" gradientUnits="userSpaceOnUse" gradientTransform="translate(816.973 37.8852) rotate(90) scale(7.98679 7.98514)">
<stop offset="0.00395168"/>
<stop offset="0.0907548" stop-color="#101215"/>
<stop offset="0.159421" stop-color="#75899E"/>
<stop offset="0.249667" stop-color="#1D4672"/>
<stop offset="0.326618" stop-color="#252F8B"/>
<stop offset="0.364065" stop-color="#2C18A3" stop-opacity="0.66"/>
<stop offset="0.402347" stop-color="#0A0625"/>
<stop offset="0.513289"/>
<stop offset="0.649389" stop-color="#0D103D"/>
<stop offset="0.816604" stop-color="#0B1B34"/>
<stop offset="0.895453" stop-color="#345D7B"/>
</radialGradient>
<radialGradient id="paint2_radial_357_4494" cx="0" cy="0" r="1" gradientUnits="userSpaceOnUse" gradientTransform="translate(816.973 37.8852) rotate(90) scale(7.98679 7.98514)">
<stop offset="0.21875"/>
<stop offset="0.458333" stop-opacity="0"/>
<stop offset="0.791667" stop-opacity="0"/>
<stop offset="1"/>
</radialGradient>
<linearGradient id="paint3_linear_357_4494" x1="1625.5" y1="241.441" x2="1625.5" y2="315.578" gradientUnits="userSpaceOnUse">
<stop stop-color="#747679"/>
<stop offset="0.101279" stop-color="#B1B3B6"/>
<stop offset="0.494792" stop-color="#BFC0C3"/>
<stop offset="0.912797" stop-color="#B1B3B6"/>
<stop offset="1" stop-color="#747679"/>
</linearGradient>
<linearGradient id="paint4_linear_357_4494" x1="1625.5" y1="151.275" x2="1625.5" y2="225.412" gradientUnits="userSpaceOnUse">
<stop stop-color="#747679"/>
<stop offset="0.101279" stop-color="#B1B3B6"/>
<stop offset="0.494792" stop-color="#BFC0C3"/>
<stop offset="0.912797" stop-color="#B1B3B6"/>
<stop offset="1" stop-color="#747679"/>
</linearGradient>
<linearGradient id="paint5_linear_357_4494" x1="1434.07" y1="-4.00759" x2="1520.81" y2="-3.6403" gradientUnits="userSpaceOnUse">
<stop stop-color="#747679"/>
<stop offset="0.140625" stop-color="#B1B3B6"/>
<stop offset="0.463542" stop-color="#BFC0C3"/>
<stop offset="0.875" stop-color="#B1B3B6"/>
<stop offset="1" stop-color="#747679"/>
</linearGradient>
<clipPath id="clip0_357_4494">
<rect x="79" y="73.2812" width="1473.26" height="1968.74" rx="43" fill="white"/>
</clipPath>
<clipPath id="clip1_357_4494">
<rect width="90" height="90" fill="white" transform="translate(298 330)"/>
</clipPath>
</defs>
</svg>
