<svg width="270" height="269" viewBox="0 0 270 269" fill="none" xmlns="http://www.w3.org/2000/svg">
<path d="M134.622 0L144.682 68.2539L174.415 5.9977L163.91 74.1846L210.671 23.4578L180.535 85.519L240.169 50.8289L193.079 101.25L260.29 85.679L200.43 119.98L269.245 124.911L201.934 140.044L266.237 165.04L197.456 159.661L251.535 202.5L187.396 177.086L226.445 233.962L172.646 190.771L193.197 256.631L154.518 199.501L154.743 268.492L134.622 202.5L114.501 268.492L114.727 199.501L76.0482 256.631L96.5985 190.771L42.7992 233.962L81.8489 177.086L17.7091 202.5L71.7885 159.661L3.0072 165.04L67.3112 140.044L0 124.911L68.8149 119.98L8.9545 85.679L76.1658 101.25L29.0753 50.8289L88.7105 85.519L58.5743 23.4578L105.335 74.1846L94.8305 5.9977L124.562 68.2539L134.622 0Z" fill="#F14E3A"/>
<path d="M111.558 143H113.857V132.588L119.975 143H122.597V129.415H120.298V139.238L114.579 129.415H111.558V143ZM129.232 143.19C131.778 143.19 133.469 142.05 133.792 139.96H131.569C131.398 140.929 130.676 141.48 129.289 141.48C127.579 141.48 126.629 140.416 126.553 138.535H133.83V137.87C133.83 134.317 131.607 132.854 129.137 132.854C126.306 132.854 124.197 134.906 124.197 137.984V138.136C124.197 141.271 126.306 143.19 129.232 143.19ZM126.591 136.996C126.819 135.457 127.75 134.526 129.137 134.526C130.562 134.526 131.436 135.286 131.55 136.996H126.591ZM137.18 143H139.536L141.55 136.312L143.393 143H145.73L148.846 133.063H146.604L144.533 140.245L142.595 133.063H140.676L138.567 140.245L136.591 133.063H134.14L137.18 143ZM151.46 143.133C152.315 143.133 152.999 142.487 152.999 141.67C152.999 140.834 152.315 140.188 151.46 140.188C150.624 140.188 149.94 140.834 149.94 141.67C149.94 142.487 150.624 143.133 151.46 143.133ZM150.548 138.915H152.41L152.771 129.415H150.206L150.548 138.915Z" fill="white"/>
</svg>
