<svg width="111" height="61" viewBox="0 0 111 61" fill="none" xmlns="http://www.w3.org/2000/svg">
<path d="M20.6757 60C33.1622 60 42 52.1379 42 39.6414C42 27.2276 34.6216 19.7793 24.1622 19.7793C18 19.7793 13.9459 22.0966 11.6757 24.7448L11.7568 8.68966H38.6757V0H3.48649L3 32.9379H8.51351C11.1081 29.8759 14.6757 27.8069 20.5946 27.8069C27 27.8069 31.0541 32.3586 31.0541 39.4759C31.0541 46.7586 27.2432 51.4759 20.5946 51.4759C13.1351 51.4759 10.9459 47.669 10.0541 42.2069H0C0.648649 52.3862 7.05406 60 20.6757 60Z" fill="#FFBB25"/>
<path d="M76.3389 0H83.8638L89.4588 17.2199L107.565 17.2198L109.89 24.3764L95.2421 35.0188L100.837 52.2385L94.7494 56.6615L80.1014 46.0192L65.4534 56.6616L59.3657 52.2386L64.9607 35.0189L50.3125 24.3764L52.6378 17.2199L70.7439 17.2199L76.3389 0Z" fill="#FFBB25"/>
</svg>
