<svg width="313" height="49" viewBox="0 0 313 49" fill="none" xmlns="http://www.w3.org/2000/svg">
<ellipse cx="156.5" cy="24.5" rx="156.5" ry="24.5" fill="#F14E3A"/>
<path d="M88.745 31.342C91.899 31.342 93.856 29.347 93.837 26.098L93.78 19.771C93.761 19.03 93.875 18.688 94.73 18.441C95.167 18.346 95.319 18.137 95.319 17.833C95.319 17.396 94.958 17.282 94.673 17.282H91.158C90.797 17.282 90.379 17.377 90.379 17.852C90.379 18.156 90.569 18.384 91.082 18.479C92.108 18.745 92.279 19.106 92.26 19.866L92.336 26.63C92.355 28.739 91.044 29.974 88.935 29.974C86.959 29.974 85.8 28.834 85.8 27.067V19.771C85.781 19.03 85.933 18.707 86.959 18.441C87.472 18.346 87.662 18.137 87.662 17.852C87.662 17.396 87.244 17.282 86.883 17.282H83.957L83.026 17.263C82.741 17.263 82.38 17.358 82.38 17.814C82.38 18.118 82.532 18.327 82.969 18.422C83.805 18.688 83.957 19.03 83.938 19.771V27.2C83.938 29.537 85.933 31.342 88.745 31.342ZM95.6401 34.477H98.8131C99.1741 34.477 99.5921 34.382 99.5921 33.964C99.5921 33.698 99.4021 33.508 98.8701 33.375C98.1861 33.185 98.0151 32.862 98.0341 32.121V31.19C98.0341 30.962 98.1291 30.81 98.3191 30.81C98.3951 30.81 98.5471 30.867 98.8131 30.962C99.1361 31.095 99.7821 31.228 100.371 31.228C103.677 31.228 105.843 29.024 105.843 25.585C105.843 22.526 103.677 20.759 101.264 20.759C100.238 20.759 99.1741 21.101 98.4521 21.766C98.1861 21.994 98.0911 21.899 98.0341 21.633C97.9201 21.101 97.7491 20.987 97.3121 20.987H96.2861L95.5451 20.968C95.2791 20.968 94.9751 21.063 94.9561 21.462C94.9561 21.747 95.0891 21.918 95.5071 22.051C96.1341 22.26 96.2671 22.583 96.2481 23.286V32.178C96.2671 32.881 96.1341 33.204 95.5831 33.394C95.1651 33.527 95.0131 33.717 95.0131 33.983C95.0131 34.382 95.3361 34.477 95.6401 34.477ZM98.0341 27.998V24.673C98.0341 23.286 99.2691 22.127 100.808 22.127C102.67 22.127 104.057 23.894 104.057 26.155C104.057 28.511 102.499 29.841 100.675 29.841C98.7751 29.841 98.0341 29.442 98.0341 27.998ZM111.435 31.285C112.385 31.285 113.506 30.962 114.133 30.335C114.399 30.069 114.646 30.164 114.741 30.544C114.836 30.905 114.931 31 115.292 31H116.964C117.268 31 117.591 30.905 117.591 30.506C117.591 30.24 117.439 30.05 117.021 29.917C116.47 29.727 116.337 29.404 116.356 28.701V18.023C116.356 17.51 116.185 17.339 115.862 17.339H114.684L113.772 17.32C113.43 17.32 113.05 17.415 113.05 17.852C113.05 18.156 113.202 18.346 113.715 18.498C114.494 18.726 114.665 19.087 114.646 19.847V20.759C114.646 20.949 114.57 21.044 114.418 21.044C114.323 21.044 114.19 21.006 113.943 20.949C113.677 20.892 113.012 20.759 112.347 20.759C109.269 20.759 106.894 23.286 106.894 26.478C106.894 29.138 108.547 31.285 111.435 31.285ZM108.68 26.098C108.68 23.799 110.124 22.127 112.347 22.127C114.247 22.127 114.646 22.393 114.646 23.856V27.77C114.646 28.948 113.411 29.917 111.891 29.917C109.782 29.917 108.68 27.865 108.68 26.098ZM121.657 31.19C122.721 31.19 124.184 30.772 125.058 30.069C125.362 29.841 125.495 29.86 125.685 30.107C126.198 30.772 126.768 31.095 127.414 31.095C127.984 31.076 128.269 30.791 128.269 30.525C128.269 30.373 128.174 30.221 127.965 30.088C127.395 29.727 127.053 29.138 126.882 28.34L126.084 24.673C125.514 22.07 124.602 20.759 122.132 20.759C120.973 20.759 119.434 21.101 118.541 21.519C117.781 21.88 117.705 22.374 118.256 23.324C118.408 23.59 118.655 23.609 118.94 23.4C120.004 22.583 121.049 22.127 121.999 22.127C123.253 22.127 124.222 23.096 124.222 24.312C124.222 24.483 124.165 24.559 123.975 24.559C123.633 24.559 122.797 24.331 121.923 24.331C119.7 24.331 117.895 25.889 117.895 27.846C117.895 29.803 119.453 31.19 121.657 31.19ZM119.681 27.751C119.681 26.535 120.764 25.68 122.303 25.68C124.374 25.68 124.583 25.946 124.773 26.877L125.001 27.96C125.191 28.853 124.146 29.822 121.961 29.822C120.669 29.822 119.681 28.91 119.681 27.751ZM130.853 31H133.076C133.475 31 133.722 30.886 133.722 30.487C133.722 30.107 133.456 29.974 132.772 29.86C131.29 29.594 131.005 29.461 131.005 28.549C131.005 27.314 131.1 25.224 131.1 22.659C131.1 22.222 131.138 22.222 131.67 22.222H132.848C133.247 22.222 133.399 22.146 133.399 21.728C133.399 21.101 133.304 20.987 132.848 20.987H131.556C131.176 20.987 131.081 20.987 131.1 20.55L131.157 19.239C131.176 18.878 131.062 18.707 130.777 18.707C130.53 18.707 130.397 18.802 130.245 19.125C129.922 19.809 129.618 20.322 129.105 20.721C128.706 21.025 128.193 21.253 127.547 21.481C127.3 21.557 127.205 21.69 127.205 21.861C127.205 22.241 127.319 22.393 127.756 22.374C129.599 22.26 129.675 22.203 129.675 22.678C129.675 23.647 129.542 25.015 129.409 26.25C129.295 27.409 129.238 28.378 129.238 29.119C129.238 30.373 129.675 31 130.853 31ZM138.467 31.228C140.044 31.228 141.849 30.449 142.818 28.777C143.103 28.302 143.008 28.074 142.628 27.789C142.381 27.599 142.172 27.618 141.944 27.903C140.823 29.309 139.987 29.765 138.752 29.765C137.859 29.765 136.947 29.347 136.263 28.606C136.149 28.492 136.035 28.378 136.035 28.226C136.035 28.074 136.149 27.979 136.301 27.865C137.46 27.067 138.733 26.573 140.215 26.364C140.766 26.269 141.317 26.193 141.868 26.06C142.533 25.889 142.894 25.338 142.894 24.635C142.894 22.583 140.918 20.759 138.391 20.759C135.598 20.759 133.299 23.134 133.299 26.079C133.299 29.271 135.883 31.228 138.467 31.228ZM135.028 25.813C135.028 23.628 136.453 22.089 138.201 22.089C139.816 22.089 141.013 23.4 141.013 24.35C141.013 24.749 140.766 24.958 140.12 25.072C138.144 25.414 136.7 26.041 135.674 26.896C135.541 27.01 135.465 27.067 135.37 27.067C135.142 27.067 135.028 26.725 135.028 25.813ZM148.47 31.285C149.42 31.285 150.541 30.962 151.168 30.335C151.434 30.069 151.681 30.164 151.776 30.544C151.871 30.905 151.966 31 152.327 31H153.999C154.303 31 154.626 30.905 154.626 30.506C154.626 30.24 154.474 30.05 154.056 29.917C153.505 29.727 153.372 29.404 153.391 28.701V18.023C153.391 17.51 153.22 17.339 152.897 17.339H151.719L150.807 17.32C150.465 17.32 150.085 17.415 150.085 17.852C150.085 18.156 150.237 18.346 150.75 18.498C151.529 18.726 151.7 19.087 151.681 19.847V20.759C151.681 20.949 151.605 21.044 151.453 21.044C151.358 21.044 151.225 21.006 150.978 20.949C150.712 20.892 150.047 20.759 149.382 20.759C146.304 20.759 143.929 23.286 143.929 26.478C143.929 29.138 145.582 31.285 148.47 31.285ZM145.715 26.098C145.715 23.799 147.159 22.127 149.382 22.127C151.282 22.127 151.681 22.393 151.681 23.856V27.77C151.681 28.948 150.446 29.917 148.926 29.917C146.817 29.917 145.715 27.865 145.715 26.098ZM159.598 31H162.714C163.075 31 163.493 30.905 163.493 30.468C163.493 30.183 163.303 29.993 162.771 29.841C162.068 29.651 161.897 29.309 161.916 28.549V22.754C161.916 22.393 162.087 22.222 162.448 22.222L163.721 22.203C164.253 22.203 164.519 22.013 164.519 21.614C164.519 21.215 164.253 21.006 163.702 20.987C161.631 20.911 160.681 20.151 160.681 19.106C160.681 18.574 161.042 18.27 161.536 18.27C162.068 18.27 162.524 18.46 163.113 19.087C163.246 19.239 163.36 19.448 163.588 19.448C163.797 19.448 163.987 19.277 164.329 18.935C164.861 18.441 164.823 18.099 164.215 17.738C163.417 17.263 162.543 17.111 161.897 17.111C160.244 17.111 158.99 18.023 158.99 19.125C158.99 19.752 159.275 20.246 159.788 20.626C159.997 20.797 159.978 20.987 159.712 21.006C159.066 21.025 158.781 21.234 158.781 21.671C158.781 22.032 159.047 22.222 159.598 22.222C159.997 22.222 160.206 22.393 160.206 22.868V28.701C160.225 29.404 160.092 29.727 159.541 29.917C159.123 30.05 158.971 30.24 158.971 30.506C158.971 30.905 159.294 31 159.598 31ZM169.436 31.285C172.248 31.285 174.452 28.986 174.452 26.06C174.452 23.02 172.172 20.683 169.322 20.759C166.434 20.816 164.154 23.172 164.154 26.098C164.154 29.005 166.548 31.285 169.436 31.285ZM165.94 25.395C165.94 23.552 167.27 22.089 168.98 22.089C170.994 22.089 172.666 23.951 172.666 26.497C172.666 28.435 171.374 29.955 169.74 29.955C167.669 29.955 165.94 28.112 165.94 25.395ZM175.172 31H178.307C178.706 31 179.143 30.905 179.143 30.487C179.143 30.183 178.934 30.012 178.383 29.86C177.642 29.67 177.471 29.328 177.49 28.568V23.818C177.49 23.001 178.155 22.374 178.934 22.374C179.352 22.374 179.694 22.602 179.96 22.982C180.169 23.267 180.264 23.419 180.511 23.419C180.834 23.419 181.195 22.887 181.195 22.317C181.195 21.481 180.587 20.835 179.713 20.835C178.953 20.835 178.459 21.139 177.851 21.709C177.737 21.823 177.604 21.823 177.566 21.633L177.528 21.519C177.433 21.12 177.243 20.987 176.958 20.987H175.818L175.077 20.968C174.811 20.968 174.507 21.063 174.488 21.462C174.488 21.747 174.621 21.918 175.039 22.051C175.666 22.26 175.799 22.583 175.78 23.286V28.701C175.799 29.404 175.666 29.727 175.115 29.917C174.697 30.05 174.545 30.24 174.545 30.506C174.545 30.905 174.868 31 175.172 31ZM186.213 31H193.433C194.288 31 194.364 30.563 194.744 29.195C194.915 28.549 195.124 27.96 195.124 27.656C195.124 27.371 194.972 27.2 194.706 27.2C194.383 27.2 194.041 27.637 193.642 28.169C192.692 29.404 192.046 29.537 189.272 29.556C187.562 29.575 187.296 29.632 187.296 29.461C187.296 29.366 187.353 29.271 187.448 29.176C188.55 28.264 189.69 27.466 191.115 26.402C194.06 24.198 194.763 22.754 194.763 20.968C194.763 18.764 192.806 17.016 190.222 17.016C188.189 17.016 186.061 18.289 185.263 20.075C184.94 20.797 185.149 21.272 185.966 21.576C186.365 21.728 186.555 21.652 186.726 21.291C187.657 19.239 188.721 18.46 190.013 18.46C191.685 18.46 192.863 19.657 192.863 21.253C192.844 22.184 192.407 23.21 190.83 24.578C189.519 25.699 187.847 26.915 186.84 27.846C185.567 29.062 185.225 29.689 185.225 30.506C185.225 30.924 185.472 31 186.213 31ZM202.349 31.361C206.339 31.361 209.208 28.169 209.208 23.856C209.208 19.79 206.054 16.864 202.501 16.864C198.625 16.864 195.794 20.056 195.794 24.35C195.794 28.302 199.024 31.361 202.349 31.361ZM197.656 23.609C197.656 20.588 199.689 18.327 202.197 18.308C204.971 18.289 207.346 21.139 207.346 24.54C207.346 27.694 205.161 29.917 202.672 29.917C200.012 29.917 197.656 27.428 197.656 23.609ZM211.021 31H218.241C219.096 31 219.172 30.563 219.552 29.195C219.723 28.549 219.932 27.96 219.932 27.656C219.932 27.371 219.78 27.2 219.514 27.2C219.191 27.2 218.849 27.637 218.45 28.169C217.5 29.404 216.854 29.537 214.08 29.556C212.37 29.575 212.104 29.632 212.104 29.461C212.104 29.366 212.161 29.271 212.256 29.176C213.358 28.264 214.498 27.466 215.923 26.402C218.868 24.198 219.571 22.754 219.571 20.968C219.571 18.764 217.614 17.016 215.03 17.016C212.997 17.016 210.869 18.289 210.071 20.075C209.748 20.797 209.957 21.272 210.774 21.576C211.173 21.728 211.363 21.652 211.534 21.291C212.465 19.239 213.529 18.46 214.821 18.46C216.493 18.46 217.671 19.657 217.671 21.253C217.652 22.184 217.215 23.21 215.638 24.578C214.327 25.699 212.655 26.915 211.648 27.846C210.375 29.062 210.033 29.689 210.033 30.506C210.033 30.924 210.28 31 211.021 31ZM226.065 31.285C229.086 31.285 231.138 29.48 231.138 27.124C231.138 25.338 229.998 24.179 228.326 23.514C228.06 23.4 228.136 23.21 228.326 23.115C229.694 22.488 230.397 21.538 230.397 20.398C230.397 18.441 228.554 16.997 226.027 16.997C224.26 16.997 222.36 17.89 221.429 19.182C220.992 19.79 220.935 20.132 221.657 20.683C221.999 20.949 222.189 21.006 222.417 20.664C223.424 19.106 224.583 18.441 225.932 18.441C227.433 18.441 228.554 19.41 228.554 20.607C228.554 22.032 227.205 22.925 225.267 22.925C224.355 22.925 224.241 23.02 224.241 23.951C224.241 24.502 224.355 24.54 225.419 24.54C228.003 24.54 229.352 25.566 229.352 27.295C229.352 28.777 228.155 29.841 226.179 29.841C224.621 29.841 223.158 29.081 222.037 27.694C221.714 27.276 221.486 27.352 221.239 27.599C220.536 28.302 220.555 28.853 221.144 29.461C222.265 30.62 224.089 31.285 226.065 31.285Z" fill="white"/>
</svg>
