<svg width="482" height="465" viewBox="0 0 482 465" fill="none" xmlns="http://www.w3.org/2000/svg">
<path d="M94.1794 451.562C106.633 460.598 121.092 464.958 135.445 464.958C157.045 464.958 178.363 455.08 192.082 436.515C192.122 436.476 192.159 436.434 192.194 436.391C192.227 436.347 192.26 436.304 192.291 436.261L192.339 436.193C192.372 436.147 192.403 436.102 192.434 436.058L240.982 369.365L289.529 436.058C289.577 436.131 289.627 436.186 289.674 436.248C289.697 436.277 289.718 436.306 289.74 436.339C312.608 467.455 356.546 474.31 387.82 451.597C419.13 428.887 426.13 384.974 403.544 353.615L403.495 353.536C403.453 353.47 403.42 353.421 403.368 353.369L354.926 286.638L433.412 261.115C470.28 249.126 490.542 209.364 478.546 172.517C466.552 135.672 426.798 115.422 389.895 127.376L311.412 152.795L311.377 70.2799C311.339 31.5361 279.784 0 241.017 0C202.25 0 170.694 31.5361 170.659 70.315L170.589 152.76L92.1041 127.34C92.0731 127.34 92.0352 127.333 91.9971 127.323C91.9477 127.31 91.897 127.29 91.8575 127.27C55.025 115.457 15.4132 135.708 3.45234 172.484C-8.50873 209.258 11.6141 248.88 48.3057 260.974C48.3397 260.985 48.3701 260.997 48.3992 261.01L48.5285 261.059L48.5875 261.08L127.037 286.603L78.5948 353.334C78.5772 353.369 78.5512 353.404 78.5249 353.439C78.4982 353.474 78.4722 353.509 78.4546 353.544C55.834 384.904 62.87 428.852 94.1794 451.562Z" fill="#2F80ED"/>
</svg>
