<svg width="28" height="28" viewBox="0 0 28 28" fill="none" xmlns="http://www.w3.org/2000/svg">
<path d="M14 15.75C14.9665 15.75 15.75 14.9665 15.75 14C15.75 13.0335 14.9665 12.25 14 12.25C13.0335 12.25 12.25 13.0335 12.25 14C12.25 14.9665 13.0335 15.75 14 15.75Z" fill="#F7F4DD"/>
<path fill-rule="evenodd" clip-rule="evenodd" d="M28 14C28 21.732 21.732 28 14 28C6.26801 28 0 21.732 0 14C0 6.26801 6.26801 0 14 0C21.732 0 28 6.26801 28 14ZM19.25 7L10.5 10.5L7 19.25L8.75 21L17.5 17.5L21 8.75L19.25 7Z" fill="#F7F4DD"/>
</svg>
