<?xml version="1.0" encoding="UTF-8"?>
<svg id="Layer_2" data-name="Layer 2" xmlns="http://www.w3.org/2000/svg" viewBox="0 0 483.48 8">
  <defs>
    <style>
      .cls-1 {
        fill: none;
        stroke: #fff;
        stroke-miterlimit: 10;
        stroke-width: 2px;
      }
    </style>
  </defs>
  <g id="Layer_1-2" data-name="Layer 1">
    <path class="cls-1" d="M0,1c7.55,0,7.55,6,15.11,6S22.66,1,30.21,1s7.55,6,15.11,6,7.55-6,15.11-6,7.55,6,15.11,6,7.55-6,15.11-6,7.55,6,15.11,6,7.55-6,15.11-6,7.55,6,15.11,6,7.55-6,15.11-6,7.55,6,15.11,6,7.55-6,15.11-6,7.55,6,15.11,6,7.55-6,15.11-6,7.55,6,15.11,6,7.55-6,15.11-6,7.56,6,15.11,6,7.55-6,15.11-6,7.55,6,15.11,6,7.55-6,15.11-6,7.55,6,15.11,6,7.55-6,15.11-6,7.56,6,15.11,6,7.55-6,15.11-6,7.55,6,15.11,6,7.56-6,15.11-6,7.56,6,15.11,6,7.55-6,15.11-6,7.56,6,15.11,6,7.56-6,15.11-6,7.56,6,15.12,6,7.56-6,15.12-6"/>
  </g>
</svg>