<svg width="471" height="511" viewBox="0 0 471 511" fill="none" xmlns="http://www.w3.org/2000/svg">
<path fill-rule="evenodd" clip-rule="evenodd" d="M300.709 143.927C436.97 -10.8852 569.946 218.108 366.376 255.198C569.946 293.901 435.329 521.281 300.709 366.468C369.66 559.982 102.063 558.371 171.015 366.468C34.754 521.281 -98.2233 293.901 105.347 255.198C-99.865 218.108 34.754 -9.2726 171.015 143.927C100.422 -47.9755 369.66 -47.9755 300.709 143.927ZM235.04 226.171C251.459 226.171 266.233 239.072 266.233 255.198C266.233 271.324 251.459 285.838 235.04 285.838C218.624 285.838 205.489 271.324 205.489 255.198C205.489 239.072 218.624 226.171 235.04 226.171Z" fill="#EB5757"/>
</svg>
