<svg width="271" height="276" viewBox="0 0 271 276" fill="none" xmlns="http://www.w3.org/2000/svg">
<path d="M270.012 141.266C270.012 131.516 269.137 122.141 267.512 113.141H138.012V166.328H212.012C208.824 183.516 199.137 198.078 184.574 207.828V242.328H229.012C255.012 218.391 270.012 183.141 270.012 141.266Z" fill="#4285F4"/>
<path d="M138.012 275.641C175.137 275.641 206.262 263.328 229.012 242.328L184.574 207.828C172.262 216.078 156.512 220.953 138.012 220.953C102.199 220.953 71.8867 196.766 61.0742 164.266H15.1367V199.891C37.7617 244.828 84.2617 275.641 138.012 275.641Z" fill="#34A853"/>
<path d="M61.0742 164.266C58.3242 156.016 56.7617 147.203 56.7617 138.141C56.7617 129.078 58.3242 120.266 61.0742 112.016V76.3906H15.1367C5.51172 95.5514 0.503236 116.698 0.51173 138.141C0.51173 160.328 5.82422 181.328 15.1367 199.891L61.0742 164.266Z" fill="#FBBC05"/>
<path d="M138.012 55.3281C158.199 55.3281 176.324 62.2656 190.574 75.8906L230.012 36.4531C206.199 14.2656 175.074 0.640625 138.012 0.640625C84.2617 0.640625 37.7617 31.4531 15.1367 76.3906L61.0742 112.016C71.8867 79.5156 102.199 55.3281 138.012 55.3281Z" fill="#EA4335"/>
</svg>
