<svg width="191" height="19" viewBox="0 0 191 19" fill="none" xmlns="http://www.w3.org/2000/svg">
<path d="M4.728 18.0005H9.144L10.152 18.0245C10.872 18.0245 11.376 17.7365 11.4 17.1605C11.4 16.7525 11.184 16.4645 10.512 16.2485C9.36 15.8885 9.144 15.4565 9.168 14.4725V3.62447C9.168 3.07247 9.36 2.83247 9.84 2.83247C10.512 2.83247 11.4 3.36047 12.504 4.41647C13.056 4.94447 13.656 5.71247 14.208 5.71247C14.544 5.71247 14.88 5.47247 14.88 4.82447C14.88 4.08047 14.688 2.71247 14.448 1.82447C14.136 0.672468 13.824 0.552467 12.816 0.552467H1.824C1.08 0.552467 0.648 0.960469 0.432 1.77647C0.192 2.56847 0 3.88847 0 4.65647C0 5.25647 0.168 5.71247 0.672 5.71247C1.152 5.71247 1.56 5.28047 2.328 4.46447C3.336 3.38447 4.248 2.83247 5.016 2.83247C5.544 2.83247 5.712 3.07247 5.712 3.62447V14.4725C5.736 15.4565 5.544 15.8885 4.392 16.2245C3.72 16.4405 3.504 16.7285 3.504 17.1125C3.504 17.6885 4.008 18.0005 4.728 18.0005Z" fill="#F7F4DD"/>
<path d="M16.1582 18.0005H20.5982C21.2462 18.0005 21.7022 17.6885 21.7022 17.1365C21.7022 16.7765 21.4862 16.4885 20.8622 16.2485C20.0942 15.9365 19.9022 15.5285 19.9262 14.4965V9.62447C19.9262 8.40047 20.9582 7.44047 22.3022 7.44047C23.7182 7.44047 24.5582 8.16047 24.7502 9.81647L25.3742 15.3365C25.5662 17.0165 25.6862 18.0005 27.1022 18.0005H29.5022C30.0782 18.0005 30.3422 17.7365 30.3422 17.2805C30.3422 16.8005 30.1262 16.5125 29.4782 16.1285C29.0462 15.8645 28.7822 15.3605 28.6382 14.4245L27.6542 8.30447C27.2702 5.88047 25.8302 4.70447 23.6942 4.70447C22.4702 4.70447 21.3182 5.18447 20.4542 6.16847C20.1902 6.48047 19.9502 6.31247 19.9502 6.00047L19.9982 1.41647C19.9982 0.960468 19.6622 0.624468 19.1342 0.624468H16.0862C15.5342 0.600468 15.1742 0.888467 15.1742 1.41647C15.1742 1.77647 15.3182 2.04047 15.8222 2.28047C16.5422 2.59247 16.7342 3.00047 16.7102 3.96047V14.6645C16.7342 15.6485 16.5662 16.0325 15.9422 16.3205C15.4142 16.5605 15.2222 16.8245 15.2222 17.1845C15.2222 17.7125 15.6062 18.0005 16.1582 18.0005Z" fill="#F7F4DD"/>
<path d="M36.6883 18.2885C38.8963 18.2885 41.2483 17.2325 42.4243 15.5765C42.8563 15.0005 42.8803 14.5445 42.4243 14.0885C42.0643 13.7045 41.6803 13.7045 41.1763 14.1365C39.9283 15.1445 38.8723 15.6725 37.4563 15.6725C36.5683 15.6725 35.6323 15.4085 35.0323 14.8085C34.7923 14.6165 34.6723 14.3765 34.6723 14.2085C34.6723 14.0405 34.8403 13.9205 35.0803 13.7045C35.7043 13.0805 36.8323 12.5525 37.9363 12.3125C38.9203 12.0965 39.9043 11.9765 40.9843 11.6885C41.8483 11.4485 42.3763 10.7765 42.3763 9.81647C42.3763 7.15247 39.7123 4.77647 36.4483 4.77647C33.2083 4.77647 29.6323 7.51247 29.7763 11.7125C29.8723 15.5765 33.0883 18.2885 36.6883 18.2885ZM32.9443 10.4405C32.9443 8.47247 34.3603 7.00847 35.9923 7.00847C37.5523 7.00847 38.8963 8.13647 38.8963 9.09647C38.8963 9.55247 38.4883 9.86447 37.7683 10.0805C36.5683 10.4405 35.0083 11.2325 34.0723 11.9285C33.8323 12.0965 33.6643 12.1685 33.5443 12.1685C33.1603 12.1685 32.9443 11.4005 32.9443 10.4405Z" fill="#F7F4DD"/>
<path d="M49.0393 18.0005H54.0793C54.6553 18.0245 55.0633 17.7125 55.0633 17.1365C55.0633 16.7525 54.8953 16.4645 54.3673 16.2485C53.4553 15.8885 53.2633 15.4565 53.2873 14.4725V4.08047C53.2633 3.09647 53.4313 2.66447 54.3433 2.32847C54.8713 2.11247 55.0633 1.82447 55.0633 1.44047C55.0633 0.864468 54.6553 0.552467 54.0793 0.552467H49.0393C48.4633 0.528468 48.0553 0.840468 48.0553 1.41647C48.0553 1.80047 48.2233 2.08847 48.7513 2.30447C49.6633 2.66447 49.8553 3.09647 49.8313 4.08047V14.4725C49.8553 15.4565 49.6873 15.8885 48.7753 16.2245C48.2473 16.4405 48.0553 16.7285 48.0553 17.1125C48.0553 17.6885 48.4633 18.0005 49.0393 18.0005Z" fill="#F7F4DD"/>
<path d="M56.4617 18.0005H60.9017C61.5497 18.0005 62.0057 17.6885 62.0057 17.1365C62.0057 16.7765 61.7897 16.4885 61.1657 16.2485C60.3977 15.9365 60.2057 15.5285 60.2297 14.4965V10.2485C60.2297 8.44847 61.2377 7.32047 62.8217 7.32047C64.7177 7.32047 65.5337 8.18447 65.5337 10.1285L65.5097 14.4965C65.5337 15.5285 65.3417 15.9365 64.5737 16.2485C63.9497 16.4885 63.7337 16.7765 63.7337 17.1365C63.7337 17.6885 64.1897 18.0005 64.8377 18.0005H69.3017C69.8537 18.0005 70.2377 17.7125 70.2377 17.1845C70.2377 16.8245 70.0457 16.5605 69.5177 16.3205C68.8937 16.0325 68.7257 15.6485 68.7497 14.6645V9.50447C68.7497 6.28847 67.2137 4.70447 64.1177 4.70447C62.8937 4.70447 61.7177 5.20847 60.7817 6.14447C60.5657 6.38447 60.3017 6.33647 60.2297 6.07247C60.0137 5.30447 59.7497 5.06447 59.1977 5.06447H56.3897C55.8377 5.04047 55.4777 5.32847 55.4777 5.85647C55.4777 6.21647 55.6217 6.48047 56.1257 6.72047C56.8457 7.03247 57.0377 7.44047 57.0137 8.40047V14.6645C57.0377 15.6485 56.8697 16.0325 56.2457 16.3205C55.7177 16.5605 55.5257 16.8245 55.5257 17.1845C55.5257 17.7125 55.9097 18.0005 56.4617 18.0005Z" fill="#F7F4DD"/>
<path d="M73.5671 18.0005C74.1911 18.0245 75.2951 18.0005 76.4231 18.0005C77.1191 18.0005 77.4551 17.7605 77.4551 17.1365C77.4551 16.4165 77.0471 16.3445 76.0871 16.1045C74.7911 15.7925 74.5271 15.5765 74.5271 14.7605C74.5271 12.8165 74.5751 10.5365 74.5991 8.11247C74.5991 7.27247 74.6711 7.22447 75.3431 7.22447H76.2551C76.9751 7.22447 77.2871 7.00847 77.2871 6.19247C77.2871 5.35247 77.0951 5.06447 76.4471 5.06447H75.4871C74.6471 5.06447 74.5271 5.01647 74.5511 4.48847L74.6231 2.64047C74.6471 2.08847 74.4071 1.89647 73.8791 1.89647C73.4711 1.89647 73.2311 2.01647 73.0151 2.40047C72.5591 3.24047 72.1751 3.79247 71.7911 4.20047C71.3591 4.65647 70.9511 4.92047 70.2551 5.32847C69.8951 5.54447 69.6791 5.71247 69.6791 6.16847C69.6791 6.74447 69.8471 7.05647 70.6631 7.03247C71.8151 7.00847 71.9831 7.10447 71.9831 7.75247C71.9831 8.52047 71.7911 9.79247 71.5991 11.3045C71.4071 12.8885 71.2391 14.3285 71.2391 15.2885C71.2391 17.1125 71.9351 17.9285 73.5671 18.0005Z" fill="#F7F4DD"/>
<path d="M83.9383 18.2885C86.1463 18.2885 88.4983 17.2325 89.6743 15.5765C90.1063 15.0005 90.1303 14.5445 89.6743 14.0885C89.3143 13.7045 88.9303 13.7045 88.4263 14.1365C87.1783 15.1445 86.1223 15.6725 84.7063 15.6725C83.8183 15.6725 82.8823 15.4085 82.2823 14.8085C82.0423 14.6165 81.9223 14.3765 81.9223 14.2085C81.9223 14.0405 82.0903 13.9205 82.3303 13.7045C82.9543 13.0805 84.0823 12.5525 85.1863 12.3125C86.1703 12.0965 87.1543 11.9765 88.2343 11.6885C89.0983 11.4485 89.6263 10.7765 89.6263 9.81647C89.6263 7.15247 86.9623 4.77647 83.6983 4.77647C80.4583 4.77647 76.8823 7.51247 77.0263 11.7125C77.1223 15.5765 80.3383 18.2885 83.9383 18.2885ZM80.1943 10.4405C80.1943 8.47247 81.6103 7.00847 83.2423 7.00847C84.8023 7.00847 86.1463 8.13647 86.1463 9.09647C86.1463 9.55247 85.7383 9.86447 85.0183 10.0805C83.8183 10.4405 82.2583 11.2325 81.3223 11.9285C81.0823 12.0965 80.9143 12.1685 80.7943 12.1685C80.4103 12.1685 80.1943 11.4005 80.1943 10.4405Z" fill="#F7F4DD"/>
<path d="M91.0371 18.0005H95.4771C96.1491 18.0005 96.6051 17.7125 96.6051 17.1605C96.6051 16.8005 96.3891 16.5125 95.7411 16.2725C94.9491 15.9845 94.7571 15.5765 94.7811 14.5685V9.55247C94.7811 8.61647 95.2611 8.01647 96.0291 8.01647C96.6291 8.01647 96.8691 8.25647 97.2531 8.85647C97.5171 9.28847 97.7811 9.48047 98.0451 9.48047C98.6931 9.48047 99.2451 8.25647 99.2451 6.84047C99.2451 5.40047 98.5971 4.94447 97.7331 4.94447C97.0131 4.94447 96.2451 5.20847 95.3571 6.16847C95.1651 6.38447 94.9491 6.38447 94.8771 6.14447L94.7811 5.83247C94.6371 5.30447 94.3731 5.06447 93.9171 5.06447H90.9651C90.4131 5.04047 90.0531 5.32847 90.0531 5.85647C90.0531 6.21647 90.1971 6.48047 90.7011 6.72047C91.4211 7.03247 91.6131 7.44047 91.5891 8.40047V14.6645C91.6131 15.6485 91.4451 16.0325 90.8211 16.3205C90.2931 16.5605 90.1011 16.8245 90.1011 17.1845C90.1011 17.7125 90.4851 18.0005 91.0371 18.0005Z" fill="#F7F4DD"/>
<path d="M107.264 18.0485C107.456 18.0485 107.696 18.0725 108.08 18.0725C108.728 18.0725 109.04 17.8325 109.4 17.1365C110.384 15.2645 111.944 11.6405 112.808 8.42447C112.976 7.77647 113.312 7.32047 113.744 7.05647C114.248 6.72047 114.56 6.40847 114.56 5.97647C114.56 5.40047 114.176 5.06447 113.48 5.06447H109.664C109.064 5.06447 108.656 5.44847 108.656 5.95247C108.656 6.40847 108.896 6.72047 109.328 6.91247C110.24 7.32047 110.288 7.70447 110.096 8.52047C109.76 9.86447 108.68 12.8645 107.888 14.3045C107.744 14.5685 107.528 14.6165 107.36 14.2805C106.52 12.6485 105.56 10.1045 105.128 8.66447C104.864 7.77647 104.888 7.39247 105.92 6.86447C106.376 6.64847 106.544 6.31247 106.544 6.00047C106.544 5.35247 106.136 5.06447 105.464 5.06447H100.784C100.088 5.06447 99.6797 5.44847 99.6797 6.00047C99.6797 6.31247 99.8717 6.67247 100.256 6.88847C100.784 7.20047 101.168 7.60847 101.432 8.32847C102.44 11.1125 104.024 14.9285 105.128 16.8725C105.632 17.7605 106.016 18.0725 106.664 18.0725C106.88 18.0725 107.048 18.0485 107.264 18.0485Z" fill="#F7F4DD"/>
<path d="M116.477 3.81647H118.997C119.549 3.81647 119.861 3.52847 119.861 2.92847C119.861 1.77647 118.925 0.792469 117.725 0.792469C116.501 0.792469 115.613 1.77647 115.613 2.92847C115.613 3.50447 115.949 3.81647 116.477 3.81647ZM115.037 5.85647C115.037 6.21647 115.181 6.48047 115.685 6.72047C116.405 7.03247 116.597 7.44047 116.573 8.40047V14.6645C116.597 15.6485 116.429 16.0325 115.805 16.3205C115.277 16.5605 115.085 16.8245 115.085 17.1845C115.085 17.7125 115.469 18.0005 116.021 18.0005H120.365C120.941 18.0005 121.349 17.7125 121.349 17.1845C121.349 16.8245 121.157 16.5605 120.581 16.2965C119.909 16.0085 119.741 15.6245 119.765 14.6405V6.31247C119.765 5.42447 119.405 5.06447 118.829 5.06447H115.949C115.397 5.04047 115.037 5.32847 115.037 5.85647Z" fill="#F7F4DD"/>
<path d="M128.048 18.2885C130.256 18.2885 132.608 17.2325 133.784 15.5765C134.216 15.0005 134.24 14.5445 133.784 14.0885C133.424 13.7045 133.04 13.7045 132.536 14.1365C131.288 15.1445 130.232 15.6725 128.816 15.6725C127.928 15.6725 126.992 15.4085 126.392 14.8085C126.152 14.6165 126.032 14.3765 126.032 14.2085C126.032 14.0405 126.2 13.9205 126.44 13.7045C127.064 13.0805 128.192 12.5525 129.296 12.3125C130.28 12.0965 131.264 11.9765 132.344 11.6885C133.208 11.4485 133.736 10.7765 133.736 9.81647C133.736 7.15247 131.072 4.77647 127.808 4.77647C124.568 4.77647 120.992 7.51247 121.136 11.7125C121.232 15.5765 124.448 18.2885 128.048 18.2885ZM124.304 10.4405C124.304 8.47247 125.72 7.00847 127.352 7.00847C128.912 7.00847 130.256 8.13647 130.256 9.09647C130.256 9.55247 129.848 9.86447 129.128 10.0805C127.928 10.4405 126.368 11.2325 125.432 11.9285C125.192 12.0965 125.024 12.1685 124.904 12.1685C124.52 12.1685 124.304 11.4005 124.304 10.4405Z" fill="#F7F4DD"/>
<path d="M140.218 18.1205C141.658 18.1205 141.898 18.0005 142.234 17.1365C142.81 15.6725 143.698 13.2245 144.058 12.0965C144.178 11.7125 144.466 11.7125 144.61 12.0965C145.186 13.7525 146.098 15.9605 146.65 17.1365C147.058 17.9765 147.25 18.0965 148.69 18.0965C149.986 18.0965 150.082 17.9765 150.466 17.0645C151.594 14.4005 152.602 11.4485 153.538 8.47247C153.802 7.70447 154.018 7.27247 154.474 6.93647C154.906 6.64847 155.146 6.36047 155.146 5.95247C155.122 5.37647 154.834 5.06447 154.258 5.06447H150.466C149.794 5.06447 149.434 5.40047 149.458 6.00047C149.458 6.36047 149.674 6.60047 149.986 6.76847C150.994 7.24847 151.114 7.60847 150.922 8.47247C150.61 9.96047 149.914 11.8325 149.17 13.5845C149.026 13.9205 148.786 13.9445 148.618 13.5845C148.018 12.2645 147.202 10.1045 146.698 8.35247C146.482 7.60847 146.65 7.27247 147.514 6.79247C147.994 6.52847 148.09 6.26447 148.09 5.95247C148.09 5.37647 147.778 5.06447 147.178 5.06447H142.522C141.826 5.06447 141.466 5.32847 141.466 5.85647C141.466 6.28847 141.73 6.55247 142.186 6.86447C142.858 7.34447 142.978 7.68047 142.834 8.30447C142.378 10.3445 141.514 12.4805 141.058 13.4645C140.89 13.8485 140.65 13.8245 140.458 13.4165C139.762 11.8805 139.09 10.2965 138.634 8.42447C138.442 7.58447 138.394 7.27247 139.282 6.88847C139.882 6.62447 140.122 6.26447 140.122 5.83247C140.098 5.32847 139.762 5.06447 139.09 5.06447H134.482C133.858 5.06447 133.546 5.35247 133.546 5.90447C133.546 6.21647 133.762 6.50447 134.194 6.76847C134.602 7.00847 134.842 7.34447 135.034 7.92047C136.09 11.1365 137.194 14.2805 138.538 17.1845C138.922 18.0245 139.09 18.1205 140.218 18.1205Z" fill="#F7F4DD"/>
<path d="M161.071 18.0005H165.319L166.207 18.0245C166.855 18.0245 167.287 17.7125 167.287 17.1365C167.311 16.7525 167.119 16.4645 166.543 16.2485C165.511 15.8885 165.319 15.4565 165.343 14.4725V10.7045C165.343 10.1285 165.583 9.98447 166.063 9.98447C167.911 9.98447 169.087 11.2325 169.855 13.8005L170.383 15.6245C170.863 17.2325 171.295 18.0005 172.687 18.0005H175.831C176.359 18.0005 176.671 17.6645 176.671 17.1125C176.671 16.6085 176.311 16.2725 175.735 16.0565C174.511 15.5765 174.319 15.3365 173.527 13.3925L173.215 12.6245C171.967 9.52847 170.911 8.44847 168.655 7.87247C168.295 7.77647 168.247 7.48847 168.511 7.20047C169.903 5.68847 171.679 4.56047 174.631 3.79247C175.015 3.69647 175.159 3.40847 175.159 3.04847C175.159 2.76047 174.991 2.16047 174.847 1.68047C174.679 1.03247 174.367 0.480469 173.695 0.480469C172.639 0.480469 170.887 1.46447 169.543 2.71247C167.983 4.15247 167.239 5.18447 166.015 6.91247C165.679 7.39247 165.319 7.27247 165.319 6.84047V4.08047C165.295 3.09647 165.463 2.66447 166.495 2.32847C167.071 2.11247 167.263 1.82447 167.263 1.44047C167.263 0.864468 166.831 0.552467 166.183 0.552467H161.071C160.495 0.552467 160.087 0.864468 160.087 1.44047C160.087 1.82447 160.279 2.11247 160.807 2.32847C161.719 2.66447 161.887 3.09647 161.863 4.08047V14.4725C161.887 15.4565 161.719 15.8885 160.807 16.2245C160.279 16.4405 160.087 16.7285 160.087 17.1125C160.087 17.6885 160.495 18.0005 161.071 18.0005Z" fill="#F7F4DD"/>
<path d="M178.563 3.81647H181.083C181.635 3.81647 181.947 3.52847 181.947 2.92847C181.947 1.77647 181.011 0.792469 179.811 0.792469C178.587 0.792469 177.699 1.77647 177.699 2.92847C177.699 3.50447 178.035 3.81647 178.563 3.81647ZM177.123 5.85647C177.123 6.21647 177.267 6.48047 177.771 6.72047C178.491 7.03247 178.683 7.44047 178.659 8.40047V14.6645C178.683 15.6485 178.515 16.0325 177.891 16.3205C177.363 16.5605 177.171 16.8245 177.171 17.1845C177.171 17.7125 177.555 18.0005 178.107 18.0005H182.451C183.027 18.0005 183.435 17.7125 183.435 17.1845C183.435 16.8245 183.243 16.5605 182.667 16.2965C181.995 16.0085 181.827 15.6245 181.851 14.6405V6.31247C181.851 5.42447 181.491 5.06447 180.915 5.06447H178.035C177.483 5.04047 177.123 5.32847 177.123 5.85647Z" fill="#F7F4DD"/>
<path d="M186.981 18.0005C187.605 18.0245 188.709 18.0005 189.837 18.0005C190.533 18.0005 190.869 17.7605 190.869 17.1365C190.869 16.4165 190.461 16.3445 189.501 16.1045C188.205 15.7925 187.941 15.5765 187.941 14.7605C187.941 12.8165 187.989 10.5365 188.013 8.11247C188.013 7.27247 188.085 7.22447 188.757 7.22447H189.669C190.389 7.22447 190.701 7.00847 190.701 6.19247C190.701 5.35247 190.509 5.06447 189.861 5.06447H188.901C188.061 5.06447 187.941 5.01647 187.965 4.48847L188.037 2.64047C188.061 2.08847 187.821 1.89647 187.293 1.89647C186.885 1.89647 186.645 2.01647 186.429 2.40047C185.973 3.24047 185.589 3.79247 185.205 4.20047C184.773 4.65647 184.365 4.92047 183.669 5.32847C183.309 5.54447 183.093 5.71247 183.093 6.16847C183.093 6.74447 183.261 7.05647 184.077 7.03247C185.229 7.00847 185.397 7.10447 185.397 7.75247C185.397 8.52047 185.205 9.79247 185.013 11.3045C184.821 12.8885 184.653 14.3285 184.653 15.2885C184.653 17.1125 185.349 17.9285 186.981 18.0005Z" fill="#F7F4DD"/>
</svg>
