<svg width="247" height="48" viewBox="0 0 247 48" fill="none" xmlns="http://www.w3.org/2000/svg">
<rect width="48" height="48" rx="8" fill="white"/>
<path d="M26.308 18.2311L25.1541 17.0772L27.4618 14.7695L33.2311 20.5388L30.9234 22.8465L29.7695 21.6926L27.4618 24.0003L28.9536 25.4921C29.476 26.0145 29.7695 26.723 29.7695 27.4618C29.7695 28.2006 29.476 28.9092 28.9536 29.4316L27.4618 30.9234L17.0772 20.5388L18.569 19.047C19.0914 18.5246 19.8 18.2311 20.5388 18.2311C21.2776 18.2311 21.9861 18.5246 22.5085 19.047L24.0003 20.5388L26.308 18.2311Z" fill="#080C14"/>
<path d="M14.7695 32.0772L19.1789 25.9041L22.0965 28.8217L15.9234 33.2311L14.7695 32.0772Z" fill="#080C14"/>
<path d="M60.728 34H65.144L66.152 34.024C66.872 34.024 67.376 33.736 67.4 33.16C67.4 32.752 67.184 32.464 66.512 32.248C65.36 31.888 65.144 31.456 65.168 30.472V19.624C65.168 19.072 65.36 18.832 65.84 18.832C66.512 18.832 67.4 19.36 68.504 20.416C69.056 20.944 69.656 21.712 70.208 21.712C70.544 21.712 70.88 21.472 70.88 20.824C70.88 20.08 70.688 18.712 70.448 17.824C70.136 16.672 69.824 16.552 68.816 16.552H57.824C57.08 16.552 56.648 16.96 56.432 17.776C56.192 18.568 56 19.888 56 20.656C56 21.256 56.168 21.712 56.672 21.712C57.152 21.712 57.56 21.28 58.328 20.464C59.336 19.384 60.248 18.832 61.016 18.832C61.544 18.832 61.712 19.072 61.712 19.624V30.472C61.736 31.456 61.544 31.888 60.392 32.224C59.72 32.44 59.504 32.728 59.504 33.112C59.504 33.688 60.008 34 60.728 34ZM72.1582 34H76.5982C77.2462 34 77.7022 33.688 77.7022 33.136C77.7022 32.776 77.4862 32.488 76.8622 32.248C76.0942 31.936 75.9022 31.528 75.9262 30.496V25.624C75.9262 24.4 76.9582 23.44 78.3022 23.44C79.7182 23.44 80.5582 24.16 80.7502 25.816L81.3742 31.336C81.5662 33.016 81.6862 34 83.1022 34H85.5022C86.0782 34 86.3422 33.736 86.3422 33.28C86.3422 32.8 86.1262 32.512 85.4782 32.128C85.0462 31.864 84.7822 31.36 84.6382 30.424L83.6542 24.304C83.2702 21.88 81.8302 20.704 79.6942 20.704C78.4702 20.704 77.3182 21.184 76.4542 22.168C76.1902 22.48 75.9502 22.312 75.9502 22L75.9982 17.416C75.9982 16.96 75.6622 16.624 75.1342 16.624H72.0862C71.5342 16.6 71.1742 16.888 71.1742 17.416C71.1742 17.776 71.3182 18.04 71.8222 18.28C72.5422 18.592 72.7342 19 72.7102 19.96V30.664C72.7342 31.648 72.5662 32.032 71.9422 32.32C71.4142 32.56 71.2222 32.824 71.2222 33.184C71.2222 33.712 71.6062 34 72.1582 34ZM92.6883 34.288C94.8963 34.288 97.2483 33.232 98.4243 31.576C98.8563 31 98.8803 30.544 98.4243 30.088C98.0643 29.704 97.6803 29.704 97.1763 30.136C95.9283 31.144 94.8723 31.672 93.4563 31.672C92.5683 31.672 91.6323 31.408 91.0323 30.808C90.7923 30.616 90.6723 30.376 90.6723 30.208C90.6723 30.04 90.8403 29.92 91.0803 29.704C91.7043 29.08 92.8323 28.552 93.9363 28.312C94.9203 28.096 95.9043 27.976 96.9843 27.688C97.8483 27.448 98.3763 26.776 98.3763 25.816C98.3763 23.152 95.7123 20.776 92.4483 20.776C89.2083 20.776 85.6323 23.512 85.7763 27.712C85.8723 31.576 89.0883 34.288 92.6883 34.288ZM88.9443 26.44C88.9443 24.472 90.3603 23.008 91.9923 23.008C93.5523 23.008 94.8963 24.136 94.8963 25.096C94.8963 25.552 94.4883 25.864 93.7683 26.08C92.5683 26.44 91.0083 27.232 90.0723 27.928C89.8323 28.096 89.6643 28.168 89.5443 28.168C89.1603 28.168 88.9443 27.4 88.9443 26.44ZM105.039 34H110.079C110.655 34.024 111.063 33.712 111.063 33.136C111.063 32.752 110.895 32.464 110.367 32.248C109.455 31.888 109.263 31.456 109.287 30.472V20.08C109.263 19.096 109.431 18.664 110.343 18.328C110.871 18.112 111.063 17.824 111.063 17.44C111.063 16.864 110.655 16.552 110.079 16.552H105.039C104.463 16.528 104.055 16.84 104.055 17.416C104.055 17.8 104.223 18.088 104.751 18.304C105.663 18.664 105.855 19.096 105.831 20.08V30.472C105.855 31.456 105.687 31.888 104.775 32.224C104.247 32.44 104.055 32.728 104.055 33.112C104.055 33.688 104.463 34 105.039 34ZM112.462 34H116.902C117.55 34 118.006 33.688 118.006 33.136C118.006 32.776 117.79 32.488 117.166 32.248C116.398 31.936 116.206 31.528 116.23 30.496V26.248C116.23 24.448 117.238 23.32 118.822 23.32C120.718 23.32 121.534 24.184 121.534 26.128L121.51 30.496C121.534 31.528 121.342 31.936 120.574 32.248C119.95 32.488 119.734 32.776 119.734 33.136C119.734 33.688 120.19 34 120.838 34H125.302C125.854 34 126.238 33.712 126.238 33.184C126.238 32.824 126.046 32.56 125.518 32.32C124.894 32.032 124.726 31.648 124.75 30.664V25.504C124.75 22.288 123.214 20.704 120.118 20.704C118.894 20.704 117.718 21.208 116.782 22.144C116.566 22.384 116.302 22.336 116.23 22.072C116.014 21.304 115.75 21.064 115.198 21.064H112.39C111.838 21.04 111.478 21.328 111.478 21.856C111.478 22.216 111.622 22.48 112.126 22.72C112.846 23.032 113.038 23.44 113.014 24.4V30.664C113.038 31.648 112.87 32.032 112.246 32.32C111.718 32.56 111.526 32.824 111.526 33.184C111.526 33.712 111.91 34 112.462 34ZM129.567 34C130.191 34.024 131.295 34 132.423 34C133.119 34 133.455 33.76 133.455 33.136C133.455 32.416 133.047 32.344 132.087 32.104C130.791 31.792 130.527 31.576 130.527 30.76C130.527 28.816 130.575 26.536 130.599 24.112C130.599 23.272 130.671 23.224 131.343 23.224H132.255C132.975 23.224 133.287 23.008 133.287 22.192C133.287 21.352 133.095 21.064 132.447 21.064H131.487C130.647 21.064 130.527 21.016 130.551 20.488L130.623 18.64C130.647 18.088 130.407 17.896 129.879 17.896C129.471 17.896 129.231 18.016 129.015 18.4C128.559 19.24 128.175 19.792 127.791 20.2C127.359 20.656 126.951 20.92 126.255 21.328C125.895 21.544 125.679 21.712 125.679 22.168C125.679 22.744 125.847 23.056 126.663 23.032C127.815 23.008 127.983 23.104 127.983 23.752C127.983 24.52 127.791 25.792 127.599 27.304C127.407 28.888 127.239 30.328 127.239 31.288C127.239 33.112 127.935 33.928 129.567 34ZM139.938 34.288C142.146 34.288 144.498 33.232 145.674 31.576C146.106 31 146.13 30.544 145.674 30.088C145.314 29.704 144.93 29.704 144.426 30.136C143.178 31.144 142.122 31.672 140.706 31.672C139.818 31.672 138.882 31.408 138.282 30.808C138.042 30.616 137.922 30.376 137.922 30.208C137.922 30.04 138.09 29.92 138.33 29.704C138.954 29.08 140.082 28.552 141.186 28.312C142.17 28.096 143.154 27.976 144.234 27.688C145.098 27.448 145.626 26.776 145.626 25.816C145.626 23.152 142.962 20.776 139.698 20.776C136.458 20.776 132.882 23.512 133.026 27.712C133.122 31.576 136.338 34.288 139.938 34.288ZM136.194 26.44C136.194 24.472 137.61 23.008 139.242 23.008C140.802 23.008 142.146 24.136 142.146 25.096C142.146 25.552 141.738 25.864 141.018 26.08C139.818 26.44 138.258 27.232 137.322 27.928C137.082 28.096 136.914 28.168 136.794 28.168C136.41 28.168 136.194 27.4 136.194 26.44ZM147.037 34H151.477C152.149 34 152.605 33.712 152.605 33.16C152.605 32.8 152.389 32.512 151.741 32.272C150.949 31.984 150.757 31.576 150.781 30.568V25.552C150.781 24.616 151.261 24.016 152.029 24.016C152.629 24.016 152.869 24.256 153.253 24.856C153.517 25.288 153.781 25.48 154.045 25.48C154.693 25.48 155.245 24.256 155.245 22.84C155.245 21.4 154.597 20.944 153.733 20.944C153.013 20.944 152.245 21.208 151.357 22.168C151.165 22.384 150.949 22.384 150.877 22.144L150.781 21.832C150.637 21.304 150.373 21.064 149.917 21.064H146.965C146.413 21.04 146.053 21.328 146.053 21.856C146.053 22.216 146.197 22.48 146.701 22.72C147.421 23.032 147.613 23.44 147.589 24.4V30.664C147.613 31.648 147.445 32.032 146.821 32.32C146.293 32.56 146.101 32.824 146.101 33.184C146.101 33.712 146.485 34 147.037 34ZM163.264 34.048C163.456 34.048 163.696 34.072 164.08 34.072C164.728 34.072 165.04 33.832 165.4 33.136C166.384 31.264 167.944 27.64 168.808 24.424C168.976 23.776 169.312 23.32 169.744 23.056C170.248 22.72 170.56 22.408 170.56 21.976C170.56 21.4 170.176 21.064 169.48 21.064H165.664C165.064 21.064 164.656 21.448 164.656 21.952C164.656 22.408 164.896 22.72 165.328 22.912C166.24 23.32 166.288 23.704 166.096 24.52C165.76 25.864 164.68 28.864 163.888 30.304C163.744 30.568 163.528 30.616 163.36 30.28C162.52 28.648 161.56 26.104 161.128 24.664C160.864 23.776 160.888 23.392 161.92 22.864C162.376 22.648 162.544 22.312 162.544 22C162.544 21.352 162.136 21.064 161.464 21.064H156.784C156.088 21.064 155.68 21.448 155.68 22C155.68 22.312 155.872 22.672 156.256 22.888C156.784 23.2 157.168 23.608 157.432 24.328C158.44 27.112 160.024 30.928 161.128 32.872C161.632 33.76 162.016 34.072 162.664 34.072C162.88 34.072 163.048 34.048 163.264 34.048ZM172.477 19.816H174.997C175.549 19.816 175.861 19.528 175.861 18.928C175.861 17.776 174.925 16.792 173.725 16.792C172.501 16.792 171.613 17.776 171.613 18.928C171.613 19.504 171.949 19.816 172.477 19.816ZM171.037 21.856C171.037 22.216 171.181 22.48 171.685 22.72C172.405 23.032 172.597 23.44 172.573 24.4V30.664C172.597 31.648 172.429 32.032 171.805 32.32C171.277 32.56 171.085 32.824 171.085 33.184C171.085 33.712 171.469 34 172.021 34H176.365C176.941 34 177.349 33.712 177.349 33.184C177.349 32.824 177.157 32.56 176.581 32.296C175.909 32.008 175.741 31.624 175.765 30.64V22.312C175.765 21.424 175.405 21.064 174.829 21.064H171.949C171.397 21.04 171.037 21.328 171.037 21.856ZM184.048 34.288C186.256 34.288 188.608 33.232 189.784 31.576C190.216 31 190.24 30.544 189.784 30.088C189.424 29.704 189.04 29.704 188.536 30.136C187.288 31.144 186.232 31.672 184.816 31.672C183.928 31.672 182.992 31.408 182.392 30.808C182.152 30.616 182.032 30.376 182.032 30.208C182.032 30.04 182.2 29.92 182.44 29.704C183.064 29.08 184.192 28.552 185.296 28.312C186.28 28.096 187.264 27.976 188.344 27.688C189.208 27.448 189.736 26.776 189.736 25.816C189.736 23.152 187.072 20.776 183.808 20.776C180.568 20.776 176.992 23.512 177.136 27.712C177.232 31.576 180.448 34.288 184.048 34.288ZM180.304 26.44C180.304 24.472 181.72 23.008 183.352 23.008C184.912 23.008 186.256 24.136 186.256 25.096C186.256 25.552 185.848 25.864 185.128 26.08C183.928 26.44 182.368 27.232 181.432 27.928C181.192 28.096 181.024 28.168 180.904 28.168C180.52 28.168 180.304 27.4 180.304 26.44ZM196.218 34.12C197.658 34.12 197.898 34 198.234 33.136C198.81 31.672 199.698 29.224 200.058 28.096C200.178 27.712 200.466 27.712 200.61 28.096C201.186 29.752 202.098 31.96 202.65 33.136C203.058 33.976 203.25 34.096 204.69 34.096C205.986 34.096 206.082 33.976 206.466 33.064C207.594 30.4 208.602 27.448 209.538 24.472C209.802 23.704 210.018 23.272 210.474 22.936C210.906 22.648 211.146 22.36 211.146 21.952C211.122 21.376 210.834 21.064 210.258 21.064H206.466C205.794 21.064 205.434 21.4 205.458 22C205.458 22.36 205.674 22.6 205.986 22.768C206.994 23.248 207.114 23.608 206.922 24.472C206.61 25.96 205.914 27.832 205.17 29.584C205.026 29.92 204.786 29.944 204.618 29.584C204.018 28.264 203.202 26.104 202.698 24.352C202.482 23.608 202.65 23.272 203.514 22.792C203.994 22.528 204.09 22.264 204.09 21.952C204.09 21.376 203.778 21.064 203.178 21.064H198.522C197.826 21.064 197.466 21.328 197.466 21.856C197.466 22.288 197.73 22.552 198.186 22.864C198.858 23.344 198.978 23.68 198.834 24.304C198.378 26.344 197.514 28.48 197.058 29.464C196.89 29.848 196.65 29.824 196.458 29.416C195.762 27.88 195.09 26.296 194.634 24.424C194.442 23.584 194.394 23.272 195.282 22.888C195.882 22.624 196.122 22.264 196.122 21.832C196.098 21.328 195.762 21.064 195.09 21.064H190.482C189.858 21.064 189.546 21.352 189.546 21.904C189.546 22.216 189.762 22.504 190.194 22.768C190.602 23.008 190.842 23.344 191.034 23.92C192.09 27.136 193.194 30.28 194.538 33.184C194.922 34.024 195.09 34.12 196.218 34.12ZM217.071 34H221.319L222.207 34.024C222.855 34.024 223.287 33.712 223.287 33.136C223.311 32.752 223.119 32.464 222.543 32.248C221.511 31.888 221.319 31.456 221.343 30.472V26.704C221.343 26.128 221.583 25.984 222.063 25.984C223.911 25.984 225.087 27.232 225.855 29.8L226.383 31.624C226.863 33.232 227.295 34 228.687 34H231.831C232.359 34 232.671 33.664 232.671 33.112C232.671 32.608 232.311 32.272 231.735 32.056C230.511 31.576 230.319 31.336 229.527 29.392L229.215 28.624C227.967 25.528 226.911 24.448 224.655 23.872C224.295 23.776 224.247 23.488 224.511 23.2C225.903 21.688 227.679 20.56 230.631 19.792C231.015 19.696 231.159 19.408 231.159 19.048C231.159 18.76 230.991 18.16 230.847 17.68C230.679 17.032 230.367 16.48 229.695 16.48C228.639 16.48 226.887 17.464 225.543 18.712C223.983 20.152 223.239 21.184 222.015 22.912C221.679 23.392 221.319 23.272 221.319 22.84V20.08C221.295 19.096 221.463 18.664 222.495 18.328C223.071 18.112 223.263 17.824 223.263 17.44C223.263 16.864 222.831 16.552 222.183 16.552H217.071C216.495 16.552 216.087 16.864 216.087 17.44C216.087 17.824 216.279 18.112 216.807 18.328C217.719 18.664 217.887 19.096 217.863 20.08V30.472C217.887 31.456 217.719 31.888 216.807 32.224C216.279 32.44 216.087 32.728 216.087 33.112C216.087 33.688 216.495 34 217.071 34ZM234.563 19.816H237.083C237.635 19.816 237.947 19.528 237.947 18.928C237.947 17.776 237.011 16.792 235.811 16.792C234.587 16.792 233.699 17.776 233.699 18.928C233.699 19.504 234.035 19.816 234.563 19.816ZM233.123 21.856C233.123 22.216 233.267 22.48 233.771 22.72C234.491 23.032 234.683 23.44 234.659 24.4V30.664C234.683 31.648 234.515 32.032 233.891 32.32C233.363 32.56 233.171 32.824 233.171 33.184C233.171 33.712 233.555 34 234.107 34H238.451C239.027 34 239.435 33.712 239.435 33.184C239.435 32.824 239.243 32.56 238.667 32.296C237.995 32.008 237.827 31.624 237.851 30.64V22.312C237.851 21.424 237.491 21.064 236.915 21.064H234.035C233.483 21.04 233.123 21.328 233.123 21.856ZM242.981 34C243.605 34.024 244.709 34 245.837 34C246.533 34 246.869 33.76 246.869 33.136C246.869 32.416 246.461 32.344 245.501 32.104C244.205 31.792 243.941 31.576 243.941 30.76C243.941 28.816 243.989 26.536 244.013 24.112C244.013 23.272 244.085 23.224 244.757 23.224H245.669C246.389 23.224 246.701 23.008 246.701 22.192C246.701 21.352 246.509 21.064 245.861 21.064H244.901C244.061 21.064 243.941 21.016 243.965 20.488L244.037 18.64C244.061 18.088 243.821 17.896 243.293 17.896C242.885 17.896 242.645 18.016 242.429 18.4C241.973 19.24 241.589 19.792 241.205 20.2C240.773 20.656 240.365 20.92 239.669 21.328C239.309 21.544 239.093 21.712 239.093 22.168C239.093 22.744 239.261 23.056 240.077 23.032C241.229 23.008 241.397 23.104 241.397 23.752C241.397 24.52 241.205 25.792 241.013 27.304C240.821 28.888 240.653 30.328 240.653 31.288C240.653 33.112 241.349 33.928 242.981 34Z" fill="white"/>
</svg>
