<svg width="76" height="76" viewBox="0 0 76 76" fill="none" xmlns="http://www.w3.org/2000/svg">
<rect width="76" height="76" rx="38" fill="#FF2559"/>
<path fill-rule="evenodd" clip-rule="evenodd" d="M21 25.5215C19.8954 25.5215 19 26.4169 19 27.5215V48.2698C19 49.3744 19.8954 50.2698 21 50.2698H27.9004C28.4526 50.2698 28.9004 50.7175 28.9004 51.2698V56.5171C28.9004 57.4081 29.9775 57.8542 30.6075 57.2243L37.269 50.5627C37.4565 50.3752 37.7109 50.2698 37.9761 50.2698H57C58.1046 50.2698 59 49.3744 59 48.2698V27.5215C59 26.4169 58.1046 25.5215 57 25.5215H21Z" fill="white"/>
<circle cx="28" cy="38" r="3" fill="#FF2559"/>
<circle cx="38" cy="38" r="3" fill="#FF2559"/>
<circle cx="48" cy="38" r="3" fill="#FF2559"/>
</svg>
