<svg width="375" height="812" viewBox="0 0 375 812" fill="none" xmlns="http://www.w3.org/2000/svg">
<path d="M0 64.4C0 41.6204 0 30.2306 4.50346 21.561C8.29848 14.2553 14.2553 8.29848 21.561 4.50346C30.2306 0 41.6204 0 64.4 0H310.6C333.38 0 344.769 0 353.439 4.50346C360.745 8.29848 366.702 14.2553 370.497 21.561C375 30.2306 375 41.6204 375 64.4V747.6C375 770.38 375 781.769 370.497 790.439C366.702 797.745 360.745 803.701 353.439 807.497C344.769 812 333.38 812 310.6 812H64.4C41.6204 812 30.2306 812 21.561 807.497C14.2553 803.701 8.29848 797.745 4.50346 790.439C0 781.769 0 770.38 0 747.6V64.4Z" fill="#D9D9D9"/>
</svg>
