<svg width="151" height="150" viewBox="0 0 151 150" fill="none" xmlns="http://www.w3.org/2000/svg">
<path d="M0.5 75.0181C0.5 57.3518 0.5 48.5187 2.47603 41.2796C7.694 22.1638 22.6277 7.23012 41.7435 2.01216C48.9827 0.0361328 57.8158 0.0361328 75.4821 0.0361328C93.1483 0.0361328 101.981 0.0361328 109.221 2.01216C128.336 7.23012 143.27 22.1638 148.488 41.2796C150.464 48.5187 150.464 57.3518 150.464 75.0181C150.464 92.6843 150.464 101.517 148.488 108.757C143.27 127.872 128.336 142.806 109.221 148.024C101.981 150 93.1483 150 75.4821 150C57.8158 150 48.9827 150 41.7435 148.024C22.6277 142.806 7.694 127.872 2.47603 108.757C0.5 101.517 0.5 92.6843 0.5 75.0181Z" fill="#D9D9D9"/>
</svg>
