<svg width="212" height="212" viewBox="0 0 212 212" fill="none" xmlns="http://www.w3.org/2000/svg">
<path d="M79.8077 92.7027L92.9566 79.5538L62.8075 49.4047L70.51 41.7022C79.9505 32.2617 92.7546 26.958 106.106 26.958C119.456 26.958 132.261 32.2617 141.701 41.7022L142.829 42.8302C152.992 52.993 158.701 66.7767 158.701 81.149L158.701 92.7027L184.999 92.7027V81.149C184.999 59.8021 176.519 39.3294 161.425 24.2348L160.297 23.1068C145.924 8.73445 126.431 0.660156 106.106 0.660156C85.78 0.660156 66.2869 8.73445 51.9146 23.1068L44.2121 30.8093L14.063 0.660156L0.914062 13.8091V92.7027H79.8077Z" fill="#F7F0EA"/>
<path d="M141.701 170.001C132.261 179.442 119.456 184.745 106.106 184.745C92.7546 184.745 79.9505 179.442 70.51 170.001L69.382 168.873C59.2192 158.71 53.5098 144.927 53.5098 130.554L53.5098 119.001L27.2119 119.001V130.554C27.2119 151.901 35.692 172.374 50.7866 187.469L51.9146 188.597C66.2869 202.969 85.78 211.043 106.106 211.043C126.431 211.043 145.924 202.969 160.297 188.597L167.999 180.894L198.148 211.043L211.297 197.894L211.297 119.001L132.403 119.001L119.254 132.15L149.404 162.299L141.701 170.001Z" fill="#F7F0EA"/>
</svg>
