<svg width="326" height="61" viewBox="0 0 326 61" fill="none" xmlns="http://www.w3.org/2000/svg">
<path d="M26.835 0.467773H34.3599L39.9549 17.6876L58.0609 17.6876L60.3862 24.8441L45.7382 35.4866L51.3332 52.7063L45.2455 57.1293L30.5975 46.4869L15.9495 57.1294L9.86176 52.7064L15.4568 35.4866L0.808594 24.8442L3.13389 17.6876L21.24 17.6876L26.835 0.467773Z" fill="#FFBB25"/>
<path d="M93.0342 0.467773H100.559L106.154 17.6876L124.26 17.6876L126.585 24.8441L111.937 35.4866L117.532 52.7063L111.445 57.1293L96.7967 46.4869L82.1487 57.1294L76.061 52.7064L81.656 35.4866L67.0078 24.8442L69.3331 17.6876L87.4392 17.6876L93.0342 0.467773Z" fill="#FFBB25"/>
<path d="M159.233 0.467773H166.758L172.353 17.6876L190.459 17.6876L192.785 24.8441L178.137 35.4866L183.732 52.7063L177.644 57.1293L162.996 46.4869L148.348 57.1294L142.26 52.7064L147.855 35.4866L133.207 24.8442L135.532 17.6876L153.638 17.6876L159.233 0.467773Z" fill="#FFBB25"/>
<path d="M225.433 0.467773H232.958L238.553 17.6876L256.659 17.6876L258.984 24.8441L244.336 35.4866L249.931 52.7063L243.843 57.1293L229.195 46.4869L214.547 57.1294L208.459 52.7064L214.054 35.4866L199.406 24.8442L201.732 17.6876L219.838 17.6876L225.433 0.467773Z" fill="#FFBB25"/>
<path d="M291.628 0.467773H299.153L304.748 17.6876L322.854 17.6876L325.179 24.8441L310.531 35.4866L316.126 52.7063L310.038 57.1293L295.39 46.4869L280.742 57.1294L274.655 52.7064L280.25 35.4866L265.602 24.8442L267.927 17.6876L286.033 17.6876L291.628 0.467773Z" fill="#FFBB25"/>
</svg>
