<?xml version="1.0" standalone="no"?>
<!DOCTYPE svg PUBLIC "-//W3C//DTD SVG 20010904//EN"
 "http://www.w3.org/TR/2001/REC-SVG-20010904/DTD/svg10.dtd">
<svg version="1.0" xmlns="http://www.w3.org/2000/svg"
 width="358.000000pt" height="358.000000pt" viewBox="0 0 358.000000 358.000000"
 preserveAspectRatio="xMidYMid meet">
<metadata>
Created by potrace 1.14, written by Peter Selinger 2001-2017
</metadata>
<g transform="translate(0.000000,358.000000) scale(0.100000,-0.100000)"
fill="#000000" stroke="none">
<path d="M1759 3548 c-39 -61 -60 -141 -88 -323 -23 -152 -27 -184 -46 -395
-14 -157 -27 -394 -29 -502 0 -36 -4 -54 -11 -50 -9 5 -63 55 -135 122 -14 14
-77 70 -140 125 -63 55 -121 106 -128 113 -8 7 -77 63 -155 125 -342 273 -522
361 -502 245 10 -58 87 -187 198 -333 79 -103 67 -88 198 -245 134 -160 175
-206 336 -379 28 -31 49 -58 47 -60 -2 -2 -37 -5 -76 -7 -98 -3 -322 -14 -378
-19 -25 -2 -81 -7 -125 -10 -44 -3 -91 -8 -105 -10 -14 -2 -50 -6 -80 -10
-103 -11 -215 -27 -260 -35 -75 -15 -84 -18 -138 -33 -152 -46 -171 -93 -54
-137 47 -18 206 -53 295 -65 27 -4 57 -8 68 -10 10 -2 49 -6 86 -10 37 -3 79
-7 93 -9 69 -12 216 -21 608 -41 35 -1 65 -4 67 -6 2 -2 -27 -36 -63 -75 -85
-91 -182 -199 -263 -294 -35 -41 -66 -77 -69 -80 -5 -5 -119 -147 -132 -165
-5 -5 -24 -30 -43 -54 -20 -24 -52 -69 -73 -100 -20 -31 -39 -58 -43 -61 -12
-10 -80 -140 -89 -171 -11 -37 2 -69 28 -69 27 0 140 57 222 112 67 46 277
203 290 218 3 3 48 41 100 85 52 43 100 84 106 90 6 5 41 37 79 70 82 72 114
101 183 167 28 27 53 46 53 41 1 -4 3 -28 4 -53 21 -415 25 -479 50 -700 36
-335 88 -530 143 -538 13 -2 27 6 36 20 17 27 52 122 60 165 32 178 40 225 51
323 23 203 41 448 50 678 2 57 5 105 7 107 1 2 30 -22 64 -53 99 -93 210 -192
298 -267 33 -27 64 -54 70 -60 80 -72 289 -233 386 -297 104 -68 155 -94 202
-103 31 -6 37 -4 42 13 17 53 -54 184 -216 397 -49 63 -201 247 -275 331 -10
12 -41 48 -70 80 -64 74 -91 104 -164 182 -44 45 -55 62 -42 63 37 2 112 7
243 13 215 12 359 23 515 41 168 19 177 21 375 61 46 10 133 49 143 65 32 51
-60 92 -298 134 -45 8 -104 17 -131 20 -27 3 -65 8 -84 10 -19 3 -60 7 -90 10
-30 2 -84 7 -120 11 -134 12 -195 15 -485 29 -38 2 -74 4 -78 4 -5 1 14 25 41
54 59 61 74 77 165 179 89 100 103 116 140 162 18 21 41 48 52 60 11 11 45 53
75 91 30 39 57 72 60 75 3 3 25 32 50 65 111 149 184 273 196 333 5 27 3 33
-19 43 -22 10 -35 7 -91 -19 -169 -79 -540 -373 -896 -709 -30 -28 -56 -51
-57 -49 -3 3 -6 49 -18 311 -3 66 -8 140 -10 165 -2 25 -7 74 -10 110 -9 103
-21 215 -39 345 -17 124 -57 283 -83 327 -24 41 -55 47 -74 16z"/>
</g>
</svg>
